<svg width="60" height="60" viewBox="0 0 60 60" fill="none" xmlns="http://www.w3.org/2000/svg">
<rect y="-0.00012207" width="60" height="60" fill="#898989"/>
<path d="M29.0126 32.4897V10.2511V9.52028H30.4337V10.2511V57.234H29.0126V32.4897Z" fill="#BFBFBF"/>
<path d="M26.955 29.3992V32.9949L29.7672 36.9105" stroke="black" stroke-width="0.61183"/>
<rect x="29.0051" y="34.0686" width="1.42857" height="22.8196" fill="white"/>
<rect x="29.0051" y="34.0686" width="1.42857" height="5.18627" fill="#FF0000"/>
<rect x="29.0051" y="54.8137" width="1.42857" height="5.18627" fill="#FF0000"/>
<rect x="29.0051" y="44.4412" width="1.42857" height="5.18627" fill="#FF0000"/>
<rect x="27.8749" y="31.8649" width="3.75" height="2.17823" fill="white"/>
<path d="M33.5 28.5111V8.61545V8.11176H26V28.5111H33.5Z" fill="black"/>
<path d="M29.6364 5.00276C27.1289 5.09112 26.2239 7.044 26 8.11176H33.5C33.3134 6.97036 32.1438 4.91439 29.6364 5.00276Z" fill="black"/>
<path d="M29.8636 31.6201C32.3711 31.5317 33.2761 29.5789 33.5 28.5111H26C26.1865 29.6525 27.3561 31.7085 29.8636 31.6201Z" fill="black"/>
<ellipse cx="29.887" cy="11.8168" rx="1.38696" ry="1.28474" fill="#212121"/>
<ellipse cx="29.887" cy="8.0135" rx="1.38696" ry="1.28474" fill="#212121"/>
<ellipse cx="29.887" cy="15.6151" rx="1.38696" ry="1.28474" fill="#212121"/>
<ellipse cx="29.887" cy="19.6834" rx="1.38696" ry="1.28474" fill="#212121"/>
<ellipse cx="29.887" cy="23.7518" rx="1.38696" ry="1.28474" fill="#212121"/>
<ellipse cx="29.887" cy="27.8201" rx="1.38696" ry="1.28474" fill="#00FF0A"/>
<ellipse cx="29.887" cy="19.769" rx="1.38696" ry="1.28474" fill="#00FF0A"/>
</svg>
