<svg width="25" height="40" viewBox="0 0 25 40" fill="none" xmlns="http://www.w3.org/2000/svg">
<path d="M22.3239 23.2517L12.5 39.9451L2.67613 23.2517C-1.14806 16.7533 -3.04933 0.0257886 12.4963 2.9778e-05C28.0499 0.0205562 26.1487 16.7523 22.3239 23.2517Z" fill="#7B7B7B"/>
<path d="M13.0118 4.94928H15.1986" stroke="#BFBFBF" stroke-width="0.463353"/>
<path d="M11.8082 4.0014C10.5614 4.04637 10.1113 5.0402 10 5.58358H13.7294C13.6367 5.00272 13.0551 3.95643 11.8082 4.0014Z" fill="black"/>
<path d="M14.1815 15.8937V4.68477V4.31641H14.8595V4.68477V28.3655H14.1815V17.2055H11.6217V15.3521V15.128L12.0851 15.1204V16.7422L13.6729 16.7629H14.1815V15.8937Z" fill="#BFBFBF"/>
<path d="M11.9212 15.7081C13.1681 15.6632 13.6181 14.6693 13.7294 14.1259H10C10.0928 14.7068 10.6744 15.7531 11.9212 15.7081Z" fill="black"/>
<path d="M13.7294 14.1259V5.79311V5.58215H10V14.1259H13.7294Z" fill="black"/>
<path d="M10.4634 14.1937V15.8155L14.5771 22.9861" stroke="black" stroke-width="0.463353"/>
<rect x="14.1815" y="16.7629" width="0.678077" height="11.6027" fill="#7B7B7B"/>
<rect x="14.1815" y="16.7629" width="0.678077" height="2.63697" fill="#FF0000"/>
<rect x="14.1815" y="22.0369" width="0.678077" height="2.63697" fill="#FF0000"/>
<rect x="14.1815" y="27.3108" width="0.678077" height="2.63697" fill="#FF0000"/>
<ellipse cx="11.8083" cy="5.57549" rx="0.678077" ry="0.648796" fill="#212121"/>
<ellipse cx="11.8083" cy="7.63006" rx="0.678077" ry="0.648796" fill="#212121"/>
<ellipse cx="11.8083" cy="9.68456" rx="0.678077" ry="0.648796" fill="#FF0000"/>
<ellipse cx="11.8083" cy="11.7391" rx="0.678077" ry="0.648796" fill="#212121"/>
<ellipse cx="11.8083" cy="13.7936" rx="0.678077" ry="0.648796" fill="#212121"/>
</svg>
