<svg width="60" height="60" viewBox="0 0 60 60" fill="none" xmlns="http://www.w3.org/2000/svg">
<rect width="60" height="60" fill="#898989"/>
<path d="M10.5573 31.3793L9.43741 28.0694C9.35445 27.8592 9.26596 27.6131 9.17195 27.3311C9.07793 27.0435 8.98391 26.7338 8.8899 26.402C8.80694 26.7393 8.71845 27.0518 8.62444 27.3394C8.53042 27.6269 8.44193 27.8758 8.35898 28.086L7.24736 31.3793H10.5573ZM15.0121 36H12.8386C12.5953 36 12.3989 35.9447 12.2496 35.8341C12.1003 35.7179 11.9869 35.5714 11.9095 35.3944L11.1961 33.2873H6.6003L5.88688 35.3944C5.82604 35.5493 5.71544 35.6903 5.55505 35.8175C5.4002 35.9392 5.20664 36 4.97436 36H2.78431L7.46305 23.9133H10.3333L15.0121 36ZM22.643 26.3688C22.5601 26.5015 22.4716 26.6011 22.3775 26.6674C22.2891 26.7338 22.1729 26.767 22.0291 26.767C21.9019 26.767 21.7637 26.7283 21.6143 26.6508C21.4706 26.5679 21.3046 26.4766 21.1166 26.3771C20.9341 26.2775 20.724 26.189 20.4861 26.1116C20.2483 26.0287 19.9773 25.9872 19.6732 25.9872C19.1478 25.9872 18.7551 26.1006 18.4952 26.3273C18.2408 26.5485 18.1136 26.8499 18.1136 27.2315C18.1136 27.4749 18.191 27.6767 18.3459 27.8371C18.5007 27.9975 18.7026 28.1357 18.9515 28.2519C19.2059 28.368 19.4934 28.4759 19.8142 28.5754C20.1405 28.6694 20.4723 28.7773 20.8097 28.8989C21.147 29.0151 21.4761 29.1533 21.7969 29.3137C22.1231 29.4741 22.4107 29.6787 22.6596 29.9276C22.914 30.1765 23.1186 30.4806 23.2735 30.8401C23.4283 31.1941 23.5058 31.6227 23.5058 32.1259C23.5058 32.6845 23.409 33.2071 23.2154 33.6938C23.0218 34.1805 22.7398 34.6063 22.3693 34.9713C22.0042 35.3308 21.5508 35.6156 21.0088 35.8258C20.4723 36.0304 19.8612 36.1327 19.1754 36.1327C18.7994 36.1327 18.415 36.094 18.0223 36.0166C17.6352 35.9392 17.2591 35.8313 16.8941 35.6931C16.5291 35.5493 16.1862 35.3806 15.8655 35.187C15.5447 34.9935 15.2654 34.7778 15.0276 34.54L15.8572 33.2293C15.9235 33.1352 16.0093 33.0578 16.1143 32.997C16.225 32.9306 16.3439 32.8974 16.4711 32.8974C16.637 32.8974 16.8029 32.95 16.9688 33.0551C17.1402 33.1601 17.331 33.2763 17.5412 33.4035C17.7569 33.5307 18.003 33.6468 18.2795 33.7519C18.556 33.857 18.8823 33.9095 19.2584 33.9095C19.7672 33.9095 20.1626 33.7989 20.4447 33.5777C20.7267 33.3509 20.8677 32.9942 20.8677 32.5075C20.8677 32.2255 20.7903 31.996 20.6355 31.819C20.4806 31.642 20.276 31.4955 20.0216 31.3793C19.7727 31.2632 19.4879 31.1609 19.1671 31.0724C18.8464 30.9839 18.5173 30.8871 18.18 30.7821C17.8426 30.6714 17.5135 30.5387 17.1928 30.3839C16.872 30.2235 16.5844 30.0161 16.33 29.7617C16.0812 29.5018 15.8793 29.181 15.7245 28.7994C15.5696 28.4123 15.4922 27.9367 15.4922 27.3725C15.4922 26.9191 15.5834 26.4766 15.7659 26.0452C15.9484 25.6139 16.2167 25.2295 16.5706 24.8922C16.9246 24.5548 17.3587 24.2866 17.873 24.0875C18.3874 23.8829 18.9763 23.7805 19.64 23.7805C20.0105 23.7805 20.37 23.811 20.7184 23.8718C21.0724 23.9271 21.407 24.0128 21.7222 24.129C22.0374 24.2396 22.3305 24.3751 22.6015 24.5354C22.8781 24.6903 23.1242 24.8673 23.3398 25.0664L22.643 26.3688ZM36.1186 29.9525C36.1186 30.8263 35.9665 31.6337 35.6623 32.3748C35.3637 33.1104 34.9406 33.7491 34.3931 34.2911C33.8456 34.8276 33.1847 35.2479 32.4105 35.552C31.6417 35.8507 30.7873 36 29.8471 36H25.1518V23.9133H29.8471C30.7873 23.9133 31.6417 24.0654 32.4105 24.3695C33.1847 24.6737 33.8456 25.094 34.3931 25.6305C34.9406 26.1669 35.3637 26.8057 35.6623 27.5468C35.9665 28.2823 36.1186 29.0842 36.1186 29.9525ZM33.2483 29.9525C33.2483 29.3552 33.1709 28.816 33.016 28.3348C32.8612 27.8537 32.6372 27.4472 32.3441 27.1154C32.0565 26.778 31.7026 26.5209 31.2823 26.3439C30.8619 26.1614 30.3836 26.0701 29.8471 26.0701H27.9723V33.8431H29.8471C30.3836 33.8431 30.8619 33.7547 31.2823 33.5777C31.7026 33.3952 32.0565 33.138 32.3441 32.8062C32.6372 32.4688 32.8612 32.0596 33.016 31.5784C33.1709 31.0973 33.2483 30.5553 33.2483 29.9525ZM40.594 26.0701V28.8906H44.3934V30.9646H40.594V33.8431H45.5547V36H37.7735V23.9133H45.5547V26.0701H40.594ZM50.0882 28.8077H50.5361C50.9509 28.8077 51.2496 28.6777 51.4321 28.4178L54.153 24.4691C54.3134 24.2589 54.4849 24.1151 54.6674 24.0377C54.8554 23.9547 55.0877 23.9133 55.3642 23.9133H57.8031L54.2194 28.7994C53.965 29.1368 53.6912 29.3801 53.3981 29.5294C53.6083 29.6068 53.7991 29.7147 53.9705 29.8529C54.142 29.9912 54.3024 30.1709 54.4517 30.3922L58.1018 36H55.5965C55.4361 36 55.2978 35.9889 55.1817 35.9668C55.0711 35.9447 54.9743 35.9115 54.8913 35.8673C54.8084 35.823 54.7365 35.7705 54.6757 35.7097C54.6148 35.6433 54.5568 35.5686 54.5015 35.4857L51.7639 31.2798C51.6643 31.1249 51.5371 31.0171 51.3823 30.9563C51.233 30.8899 51.0284 30.8567 50.7684 30.8567H50.0882V36H47.2843V23.9133H50.0882V28.8077Z" fill="white"/>
</svg>
