<svg width="31" height="30" viewBox="0 0 31 30" fill="none" xmlns="http://www.w3.org/2000/svg">
<rect width="30.3072" height="30" rx="6" fill="#7B7B7B"/>
<path d="M26.7965 15.5303C27.0894 15.2374 27.0894 14.7626 26.7965 14.4697L22.0236 9.6967C21.7307 9.40381 21.2558 9.40381 20.9629 9.6967C20.67 9.98959 20.67 10.4645 20.9629 10.7574L25.2056 15L20.9629 19.2426C20.67 19.5355 20.67 20.0104 20.9629 20.3033C21.2558 20.5962 21.7307 20.5962 22.0236 20.3033L26.7965 15.5303ZM3.51062 14.4697C3.21773 14.7626 3.21773 15.2374 3.51062 15.5303L8.2836 20.3033C8.57649 20.5962 9.05136 20.5962 9.34426 20.3033C9.63715 20.0104 9.63715 19.5355 9.34426 19.2426L5.10161 15L9.34426 10.7574C9.63715 10.4645 9.63715 9.98959 9.34426 9.6967C9.05136 9.40381 8.57649 9.40381 8.2836 9.6967L3.51062 14.4697ZM4.92996 15.75H25.3772V14.25H4.92996V15.75ZM25.3772 15.75H26.2662V14.25H25.3772V15.75ZM4.92996 14.25H4.04095V15.75H4.92996V14.25Z" fill="white"/>
</svg>
