<svg width="500" height="500" viewBox="0 0 500 500" fill="none" xmlns="http://www.w3.org/2000/svg">
<mask id="path-1-inside-1_102_63" fill="white">
<path d="M0 250C0 111.929 111.929 6.10352e-05 250 6.10352e-05C388.071 6.10352e-05 500 111.929 500 250C500 388.071 388.071 500 250 500C111.929 500 0 388.071 0 250Z"/>
</mask>
<path d="M0 250C0 111.929 111.929 6.10352e-05 250 6.10352e-05C388.071 6.10352e-05 500 111.929 500 250C500 388.071 388.071 500 250 500C111.929 500 0 388.071 0 250Z" fill="#242424"/>
<path d="M0 222.821C0 84.7503 111.929 -27.1785 250 -27.1785C388.071 -27.1785 500 84.7503 500 222.821V250C500 126.939 388.071 27.1787 250 27.1787C111.929 27.1787 0 126.939 0 250V222.821ZM500 277.179C500 415.25 388.071 527.179 250 527.179C111.929 527.179 0 415.25 0 277.179V250C0 373.061 111.929 472.821 250 472.821C388.071 472.821 500 373.061 500 250V277.179ZM0 500V6.10352e-05V500ZM500 6.10352e-05V500V6.10352e-05Z" fill="#FFD600" mask="url(#path-1-inside-1_102_63)"/>
<path d="M210.369 301.604C210.369 301.604 210.369 341.807 210.369 364.846C210.369 387.885 202.798 417.491 171.591 417.491C140.385 417.491 132.813 417.491 132.813 417.491L132.812 78.125L250.754 78.125C274.312 78.125 294.504 80.9665 311.331 86.6494C328.311 92.1788 342.232 99.8585 353.093 109.689C364.107 119.519 372.214 131.115 377.415 144.478C382.616 157.84 385.217 172.278 385.217 187.791C385.217 204.533 382.54 219.892 377.186 233.869C371.832 247.846 363.648 259.827 352.634 269.81C341.62 279.794 327.623 287.627 310.643 293.31C293.816 298.839 273.853 301.604 250.754 301.604L210.369 301.604ZM210.369 242.854L250.754 242.854C270.946 242.854 285.479 238.016 294.351 228.34C303.224 218.663 307.66 205.147 307.66 187.791C307.66 180.111 306.512 173.123 304.218 166.825C301.923 160.528 298.405 155.152 293.663 150.698C289.074 146.09 283.184 142.558 275.995 140.1C268.958 137.643 260.544 136.414 250.754 136.414L210.369 136.414L210.369 242.854Z" fill="url(#paint0_linear_102_63)"/>
<path d="M239.215 301.604C239.215 301.604 239.215 341.807 239.215 364.846C239.215 387.885 231.643 417.491 200.437 417.491C169.231 417.491 161.659 417.491 161.659 417.491L161.658 78.125L279.6 78.125C303.158 78.125 323.35 80.9665 340.177 86.6494C357.157 92.1788 371.077 99.8585 381.938 109.689C392.952 119.519 401.06 131.115 406.261 144.478C411.462 157.84 414.062 172.278 414.062 187.791C414.062 204.533 411.385 219.892 406.031 233.869C400.677 247.846 392.493 259.827 381.479 269.81C370.465 279.794 356.468 287.627 339.488 293.31C322.662 298.839 302.699 301.604 279.6 301.604L239.215 301.604ZM239.215 242.854L279.6 242.854C299.792 242.854 314.325 238.016 323.197 228.34C332.069 218.663 336.505 205.147 336.505 187.791C336.505 180.111 335.358 173.123 333.064 166.825C330.769 160.528 327.251 155.152 322.509 150.698C317.919 146.09 312.03 142.558 304.84 140.1C297.804 137.643 289.39 136.414 279.6 136.414L239.215 136.414L239.215 242.854Z" fill="url(#paint1_linear_102_63)"/>
<path d="M210.685 301.604C210.685 301.604 210.685 341.807 210.685 364.846C210.685 387.885 203.082 417.491 171.749 417.491C140.416 417.491 132.813 417.491 132.813 417.491L132.812 78.125L251.233 78.125C274.887 78.125 295.161 80.9665 312.057 86.6494C329.105 92.1788 343.083 99.8585 353.988 109.689C365.046 119.519 373.187 131.115 378.409 144.478C383.631 157.84 386.242 172.278 386.242 187.791C386.242 204.533 383.555 219.892 378.179 233.869C372.803 247.846 364.586 259.827 353.527 269.81C342.468 279.794 328.414 287.627 311.365 293.31C294.47 298.839 274.426 301.604 251.233 301.604L210.685 301.604ZM210.685 242.854L251.233 242.854C271.508 242.854 286.099 238.016 295.008 228.34C303.916 218.663 308.37 205.147 308.37 187.791C308.37 180.111 307.218 173.123 304.914 166.825C302.611 160.528 299.078 155.152 294.316 150.698C289.709 146.09 283.795 142.558 276.576 140.1C269.511 137.643 261.063 136.414 251.233 136.414L210.685 136.414L210.685 242.854Z" fill="url(#paint2_radial_102_63)"/>
<defs>
<linearGradient id="paint0_linear_102_63" x1="259.015" y1="78.125" x2="259.015" y2="417.491" gradientUnits="userSpaceOnUse">
<stop offset="0.135417" stop-color="#FFD600"/>
<stop offset="1"/>
</linearGradient>
<linearGradient id="paint1_linear_102_63" x1="287.86" y1="78.125" x2="287.86" y2="417.491" gradientUnits="userSpaceOnUse">
<stop offset="0.135417" stop-color="#FFD600"/>
<stop offset="1"/>
</linearGradient>
<radialGradient id="paint2_radial_102_63" cx="0" cy="0" r="1" gradientUnits="userSpaceOnUse" gradientTransform="translate(259.527 247.808) rotate(0.36307) scale(345.948 325.206)">
<stop offset="0.484375" stop-color="white"/>
<stop offset="1"/>
</radialGradient>
</defs>
</svg>
