<svg width="160" height="150" viewBox="0 0 160 150" fill="none" xmlns="http://www.w3.org/2000/svg">
<path d="M10.163 139L80 12.4204L149.837 139H80H10.163Z" stroke="white" stroke-width="12"/>
<path d="M85.4488 50.3354V80.6619C85.4488 83.8784 85.2898 87.0418 84.9717 90.1522C84.6536 93.2273 84.2294 96.4968 83.6992 99.9606H74.8451C74.315 96.4968 73.8908 93.2273 73.5727 90.1522C73.2546 87.0418 73.0955 83.8784 73.0955 80.6619V50.3354H85.4488ZM71.0808 119.789C71.0808 118.694 71.2752 117.651 71.664 116.661C72.0882 115.672 72.6537 114.823 73.3606 114.117C74.1029 113.41 74.9689 112.844 75.9585 112.42C76.9482 111.996 78.0086 111.784 79.1396 111.784C80.2354 111.784 81.278 111.996 82.2677 112.42C83.2574 112.844 84.1057 113.41 84.8126 114.117C85.5195 114.823 86.085 115.672 86.5092 116.661C86.9333 117.651 87.1454 118.694 87.1454 119.789C87.1454 120.921 86.9333 121.981 86.5092 122.971C86.085 123.925 85.5195 124.756 84.8126 125.462C84.1057 126.169 83.2574 126.717 82.2677 127.106C81.278 127.53 80.2354 127.742 79.1396 127.742C78.0086 127.742 76.9482 127.53 75.9585 127.106C74.9689 126.717 74.1029 126.169 73.3606 125.462C72.6537 124.756 72.0882 123.925 71.664 122.971C71.2752 121.981 71.0808 120.921 71.0808 119.789Z" fill="#FFFBFB"/>
</svg>
