<svg width="60" height="60" viewBox="0 0 60 60" fill="none" xmlns="http://www.w3.org/2000/svg">
<rect width="60" height="60" fill="#898989"/>
<path d="M30.5 6.04878H35.2195" stroke="#BFBFBF"/>
<path d="M27.9024 4.00303C25.2115 4.10008 24.2403 6.24494 24 7.41767H32.0488C31.8486 6.16406 30.5934 3.90598 27.9024 4.00303Z" fill="black"/>
<path d="M33.0244 29.6688V5.47793V4.68292H34.4878V5.47793V56.5854H33.0244V32.5H27.5V28.5V28.0163L28.5 28V31.5L31.9268 31.5447H33.0244V29.6688Z" fill="#BFBFBF"/>
<path d="M28.1463 29.2683C30.8373 29.1712 31.8085 27.0264 32.0488 25.8537H24C24.2002 27.1073 25.4554 29.3654 28.1463 29.2683Z" fill="black"/>
<path d="M32.0488 25.8537V7.86993V7.41464H24V25.8537H32.0488Z" fill="black"/>
<path d="M25 26V29.5L33.8781 44.9756" stroke="black"/>
<rect x="33.0244" y="31.5447" width="1.46341" height="25.0407" fill="white"/>
<rect x="33.0244" y="31.5447" width="1.46341" height="5.69106" fill="#FF0000"/>
<rect x="33.0244" y="42.9268" width="1.46341" height="5.69106" fill="#FF0000"/>
<rect x="33.0244" y="54.3089" width="1.46341" height="5.69106" fill="#FF0000"/>
<ellipse cx="27.9024" cy="7.40022" rx="1.46341" ry="1.40022" fill="#212121"/>
<ellipse cx="27.9024" cy="11.8343" rx="1.46341" ry="1.40022" fill="#212121"/>
<ellipse cx="27.9024" cy="16.2683" rx="1.46341" ry="1.40022" fill="#FF0000"/>
<ellipse cx="27.9024" cy="20.7023" rx="1.46341" ry="1.40022" fill="#212121"/>
<ellipse cx="27.9024" cy="25.1364" rx="1.46341" ry="1.40022" fill="#212121"/>
</svg>
