<svg width="1048" height="251" viewBox="0 0 1048 251" fill="none" xmlns="http://www.w3.org/2000/svg">
<g filter="url(#filter0_d_659_41)">
<path d="M57.6316 199.974C47.8947 199.974 39.3421 198.526 31.9737 195.632C24.6053 192.737 17.5 188.132 10.6579 181.816C9.73684 180.895 8.94737 179.908 8.28947 178.855C7.76316 177.671 7.5 176.421 7.5 175.105C7.5 173 8.22368 171.158 9.67105 169.579C11.25 167.868 13.1579 167.013 15.3947 167.013C17.2368 167.013 18.8816 167.737 20.3289 169.184C25.4605 174.184 30.9868 178 36.9079 180.632C42.9605 183.263 49.7368 184.579 57.2368 184.579C63.0263 184.579 68.2237 183.658 72.829 181.816C77.5658 179.974 81.3158 177.408 84.079 174.118C86.8421 170.829 88.2237 167.013 88.2237 162.671C88.0921 157.408 86.5132 153.066 83.4868 149.645C80.5921 146.224 76.5132 143.395 71.25 141.158C66.1184 138.789 60.1316 136.816 53.2895 135.237C47.2368 133.789 41.6447 132.013 36.5132 129.908C31.5132 127.803 27.1711 125.237 23.4868 122.211C19.8026 119.053 16.9079 115.303 14.8026 110.961C12.8289 106.487 11.8421 101.289 11.8421 95.3684C11.8421 87.8684 13.8158 81.2895 17.7632 75.6316C21.7105 69.9737 27.1711 65.6316 34.1447 62.6053C41.1184 59.4474 49.1447 57.8684 58.2237 57.8684C66.25 57.8684 73.8158 59.1842 80.9211 61.8158C88.1579 64.4474 93.9474 68.0658 98.2895 72.671C100.921 75.171 102.237 77.6053 102.237 79.9737C102.237 81.9474 101.382 83.7895 99.6711 85.5C98.0921 87.0789 96.25 87.8684 94.1447 87.8684C92.6974 87.8684 91.3816 87.3421 90.1974 86.2895C87.9605 83.7895 85.1316 81.5526 81.7105 79.5789C78.2895 77.6053 74.5395 76.0263 70.4605 74.8421C66.3816 73.6579 62.3026 73.0658 58.2237 73.0658C52.1711 73.0658 46.8421 73.9868 42.2368 75.8289C37.6316 77.5395 34.0132 80.0395 31.3816 83.3289C28.8816 86.4868 27.6316 90.3026 27.6316 94.7763C27.6316 99.7763 29.0789 103.921 31.9737 107.211C34.8684 110.368 38.75 113 43.6184 115.105C48.4868 117.079 53.8816 118.855 59.8026 120.434C66.25 122.013 72.1711 123.855 77.5658 125.961C83.0921 127.934 87.829 130.434 91.7763 133.461C95.7237 136.487 98.75 140.368 100.855 145.105C103.092 149.711 104.211 155.434 104.211 162.276C104.211 169.513 102.171 175.961 98.0921 181.618C94.0132 187.276 88.4211 191.75 81.3158 195.039C74.3421 198.197 66.4474 199.842 57.6316 199.974ZM123.991 96.5526H170.372C172.477 96.5526 174.188 97.2763 175.504 98.7237C176.951 100.171 177.675 101.882 177.675 103.855C177.675 105.961 176.951 107.737 175.504 109.184C174.188 110.5 172.477 111.158 170.372 111.158H123.991C122.017 111.158 120.306 110.434 118.859 108.987C117.412 107.539 116.688 105.763 116.688 103.658C116.688 101.684 117.412 100.039 118.859 98.7237C120.306 97.2763 122.017 96.5526 123.991 96.5526ZM144.714 69.7105C146.951 69.7105 148.793 70.5 150.241 72.0789C151.688 73.5263 152.412 75.3684 152.412 77.6053V172.934C152.412 176.092 152.872 178.461 153.793 180.039C154.714 181.618 155.898 182.737 157.346 183.395C158.925 183.921 160.438 184.184 161.885 184.184C163.201 184.184 164.319 183.987 165.241 183.592C166.293 183.066 167.477 182.803 168.793 182.803C170.109 182.803 171.293 183.461 172.346 184.776C173.53 185.961 174.122 187.539 174.122 189.513C174.122 191.882 172.741 193.921 169.977 195.632C167.214 197.211 164.122 198 160.701 198C158.859 198 156.556 197.868 153.793 197.605C151.162 197.342 148.53 196.487 145.898 195.039C143.267 193.592 141.03 191.224 139.188 187.934C137.477 184.513 136.622 179.776 136.622 173.724V77.6053C136.622 75.3684 137.412 73.5263 138.991 72.0789C140.569 70.5 142.477 69.7105 144.714 69.7105ZM283.717 94.9737C285.954 94.9737 287.796 95.7632 289.243 97.3421C290.822 98.7895 291.612 100.632 291.612 102.868V189.908C291.612 192.145 290.822 194.053 289.243 195.632C287.796 197.211 285.954 198 283.717 198C281.349 198 279.441 197.211 277.993 195.632C276.546 194.053 275.822 192.145 275.822 189.908V171.158L279.572 170.763C279.572 173.658 278.586 176.816 276.612 180.237C274.638 183.658 271.941 186.882 268.52 189.908C265.099 192.803 261.02 195.237 256.283 197.211C251.678 199.053 246.678 199.974 241.283 199.974C232.336 199.974 224.309 197.671 217.204 193.066C210.099 188.329 204.441 181.947 200.23 173.921C196.151 165.895 194.112 156.75 194.112 146.487C194.112 136.092 196.151 126.947 200.23 119.053C204.441 111.026 210.099 104.776 217.204 100.303C224.309 95.6974 232.204 93.3947 240.888 93.3947C246.546 93.3947 251.809 94.3158 256.678 96.1579C261.546 98 265.757 100.5 269.309 103.658C272.993 106.816 275.822 110.303 277.796 114.118C279.901 117.934 280.954 121.75 280.954 125.566L275.822 124.382V102.868C275.822 100.632 276.546 98.7895 277.993 97.3421C279.441 95.7632 281.349 94.9737 283.717 94.9737ZM243.059 185.368C249.638 185.368 255.428 183.658 260.428 180.237C265.559 176.816 269.507 172.211 272.27 166.421C275.164 160.5 276.612 153.855 276.612 146.487C276.612 139.25 275.164 132.737 272.27 126.947C269.507 121.026 265.559 116.421 260.428 113.132C255.428 109.711 249.638 108 243.059 108C236.612 108 230.822 109.645 225.691 112.934C220.691 116.224 216.743 120.763 213.849 126.553C210.954 132.342 209.507 138.987 209.507 146.487C209.507 153.855 210.888 160.5 213.651 166.421C216.546 172.211 220.493 176.816 225.493 180.237C230.625 183.658 236.48 185.368 243.059 185.368ZM366.268 93.3947C372.979 93.3947 379.031 94.1184 384.426 95.5658C389.821 97.0132 394.097 98.9868 397.255 101.487C400.413 103.987 401.992 106.816 401.992 109.974C401.992 111.684 401.4 113.329 400.215 114.908C399.031 116.487 397.452 117.276 395.479 117.276C393.636 117.276 392.123 116.947 390.939 116.289C389.886 115.632 388.834 114.776 387.781 113.724C386.86 112.671 385.544 111.75 383.834 110.961C382.255 110.039 379.952 109.316 376.926 108.789C373.9 108.263 370.873 108 367.847 108C360.61 108 354.229 109.711 348.702 113.132C343.307 116.553 339.031 121.158 335.873 126.947C332.715 132.737 331.136 139.316 331.136 146.684C331.136 154.053 332.65 160.632 335.676 166.421C338.702 172.211 342.913 176.816 348.307 180.237C353.702 183.658 359.952 185.368 367.057 185.368C371.663 185.368 375.347 184.974 378.11 184.184C380.873 183.395 383.176 182.474 385.018 181.421C387.386 180.105 389.163 178.789 390.347 177.474C391.663 176.158 393.373 175.5 395.479 175.5C397.715 175.5 399.426 176.224 400.61 177.671C401.926 179.118 402.584 180.895 402.584 183C402.584 185.368 400.939 187.868 397.65 190.5C394.36 193.132 389.886 195.368 384.229 197.211C378.702 199.053 372.386 199.974 365.281 199.974C355.281 199.974 346.531 197.671 339.031 193.066C331.531 188.329 325.676 181.947 321.465 173.921C317.386 165.763 315.347 156.684 315.347 146.684C315.347 136.684 317.452 127.671 321.663 119.645C326.005 111.618 331.992 105.237 339.623 100.5C347.255 95.7632 356.136 93.3947 366.268 93.3947ZM441.772 204.711C441.772 211.421 440.259 217.145 437.233 221.882C434.338 226.618 430.654 230.303 426.18 232.934C421.706 235.566 417.035 236.882 412.167 236.882C409.93 236.882 408.154 236.158 406.838 234.711C405.391 233.263 404.667 231.553 404.667 229.579V228.197C404.667 226.224 405.325 224.645 406.641 223.461C407.956 222.276 409.601 221.421 411.575 220.895C414.601 220.105 417.167 218.855 419.272 217.145C421.377 215.566 423.022 213.395 424.206 210.632C425.391 208 425.983 204.842 425.983 201.158V103.855C425.983 101.618 426.706 99.7105 428.154 98.1316C429.733 96.5526 431.641 95.7632 433.877 95.7632C436.246 95.7632 438.154 96.5526 439.601 98.1316C441.049 99.7105 441.772 101.618 441.772 103.855V204.711ZM433.877 81.1579C430.588 81.1579 428.154 80.5 426.575 79.1842C424.996 77.8684 424.206 75.8289 424.206 73.0658V70.3026C424.206 67.5395 425.062 65.5 426.772 64.1842C428.483 62.8684 430.917 62.2105 434.075 62.2105C437.233 62.2105 439.601 62.8684 441.18 64.1842C442.759 65.5 443.549 67.5395 443.549 70.3026V73.0658C443.549 75.8289 442.693 77.8684 440.983 79.1842C439.404 80.5 437.035 81.1579 433.877 81.1579ZM760.45 94.1842C762.555 94.1842 764.331 94.9079 765.779 96.3553C767.358 97.8026 768.147 99.7105 768.147 102.079C768.147 102.605 768.081 103.197 767.95 103.855C767.95 104.382 767.818 104.908 767.555 105.434L737.16 192.868C736.502 194.579 735.384 195.895 733.805 196.816C732.358 197.737 730.779 198.132 729.068 198C726.042 197.868 723.739 196.158 722.16 192.868L697.292 130.5L701.239 131.092L678.739 192.868C677.292 196.158 674.989 197.868 671.831 198C670.121 198.132 668.476 197.737 666.897 196.816C665.318 195.895 664.266 194.579 663.739 192.868L632.752 105.434C632.358 104.25 632.16 103.132 632.16 102.079C632.16 99.9737 632.884 98.1316 634.331 96.5526C635.779 94.9737 637.752 94.1842 640.252 94.1842C641.831 94.1842 643.279 94.5789 644.595 95.3684C645.91 96.1579 646.831 97.4079 647.358 99.1184L674.002 176.882L669.858 176.684L692.95 117.474C694.266 114.184 696.7 112.539 700.252 112.539C702.095 112.539 703.542 113 704.595 113.921C705.779 114.711 706.634 115.895 707.16 117.474L731.239 176.684L726.305 177.079L752.95 99.1184C754.134 95.8289 756.634 94.1842 760.45 94.1842ZM840.154 93.3947C849.102 93.3947 856.141 95.2368 861.273 98.921C866.404 102.605 870.023 107.539 872.128 113.724C874.365 119.908 875.483 126.816 875.483 134.447V189.908C875.483 192.145 874.694 194.053 873.115 195.632C871.667 197.211 869.825 198 867.588 198C865.352 198 863.444 197.211 861.865 195.632C860.417 194.053 859.694 192.145 859.694 189.908V134.842C859.694 129.842 858.904 125.368 857.325 121.421C855.878 117.342 853.378 114.118 849.825 111.75C846.404 109.25 841.667 108 835.615 108C830.088 108 825.023 109.25 820.417 111.75C815.812 114.118 812.128 117.342 809.365 121.421C806.602 125.368 805.22 129.842 805.22 134.842V189.908C805.22 192.145 804.431 194.053 802.852 195.632C801.404 197.211 799.562 198 797.325 198C795.088 198 793.181 197.211 791.602 195.632C790.154 194.053 789.431 192.145 789.431 189.908V103.855C789.431 101.618 790.154 99.7763 791.602 98.3289C793.181 96.75 795.088 95.9605 797.325 95.9605C799.694 95.9605 801.602 96.75 803.049 98.3289C804.496 99.7763 805.22 101.618 805.22 103.855V117.868L801.273 122.211C801.931 118.789 803.444 115.368 805.812 111.947C808.181 108.395 811.141 105.237 814.694 102.474C818.246 99.7105 822.194 97.5395 826.536 95.9605C830.878 94.25 835.417 93.3947 840.154 93.3947ZM919.888 189.908C919.888 192.145 919.098 194.053 917.52 195.632C916.072 197.211 914.23 198 911.993 198C909.625 198 907.717 197.211 906.27 195.632C904.822 194.053 904.098 192.145 904.098 189.908V102.276C904.098 100.039 904.822 98.1974 906.27 96.75C907.848 95.171 909.756 94.3816 911.993 94.3816C914.23 94.3816 916.072 95.171 917.52 96.75C919.098 98.1974 919.888 100.039 919.888 102.276V189.908ZM911.993 81.1579C908.704 81.1579 906.27 80.5 904.691 79.1842C903.112 77.8684 902.322 75.8289 902.322 73.0658V70.3026C902.322 67.5395 903.177 65.5 904.888 64.1842C906.598 62.8684 909.033 62.2105 912.191 62.2105C915.348 62.2105 917.717 62.8684 919.296 64.1842C920.875 65.5 921.664 67.5395 921.664 70.3026V73.0658C921.664 75.8289 920.809 77.8684 919.098 79.1842C917.52 80.5 915.151 81.1579 911.993 81.1579ZM957.724 198C955.356 198 953.448 197.211 952 195.632C950.553 194.053 949.829 192.145 949.829 189.908V59.8421C949.829 57.6053 950.553 55.7632 952 54.3158C953.448 52.7368 955.356 51.9474 957.724 51.9474C959.961 51.9474 961.803 52.7368 963.25 54.3158C964.829 55.7632 965.619 57.6053 965.619 59.8421V189.908C965.619 192.145 964.829 194.053 963.25 195.632C961.803 197.211 959.961 198 957.724 198ZM1023.25 95.3684C1025.36 95.3684 1027.13 96.2237 1028.58 97.9342C1030.16 99.5132 1030.95 101.158 1030.95 102.868C1030.95 105.105 1029.9 107.079 1027.79 108.789L963.843 164.645L963.25 146.289L1017.72 97.7368C1019.3 96.1579 1021.15 95.3684 1023.25 95.3684ZM1025.42 197.803C1023.18 197.803 1021.21 196.947 1019.5 195.237L977.461 150.434L989.303 139.579L1030.95 184.184C1032.53 185.895 1033.32 187.868 1033.32 190.105C1033.32 192.474 1032.4 194.382 1030.55 195.829C1028.71 197.145 1027 197.803 1025.42 197.803Z" fill="white"/>
</g>
<rect x="577.5" y="196.091" width="3.36099" height="67.9998" rx="1.6805" transform="rotate(90 577.5 196.091)" fill="white"/>
<rect x="594.5" y="207.854" width="5.04149" height="98.5997" rx="2.52074" transform="rotate(90 594.5 207.854)" fill="white"/>
<g filter="url(#filter1_d_659_41)">
<rect width="11.8319" height="55.522" rx="5.91595" transform="matrix(0.711174 0.703016 -0.711174 0.703016 523.486 175.925)" fill="white"/>
</g>
<g filter="url(#filter2_d_659_41)">
<rect width="11.8319" height="55.522" rx="5.91595" transform="matrix(-0.711174 0.703016 0.711174 0.703016 565.514 175.925)" fill="white"/>
</g>
<g filter="url(#filter3_d_659_41)">
<rect x="489.1" y="34.7829" width="110.5" height="154.566" rx="16.9999" stroke="#7A7A7A" stroke-width="3.39999"/>
<path fill-rule="evenodd" clip-rule="evenodd" d="M487.4 51.7829C487.4 41.4552 495.772 33.0829 506.1 33.0829H582.6C592.927 33.0829 601.299 41.4552 601.299 51.7829V172.349C601.299 182.677 592.927 191.049 582.6 191.049H506.1C495.772 191.049 487.4 182.677 487.4 172.349V51.7829ZM521.915 164.161C521.915 170.658 516.506 175.925 509.835 175.925C503.163 175.925 497.754 170.658 497.754 164.161C497.754 157.665 503.163 152.398 509.835 152.398C516.506 152.398 521.915 157.665 521.915 164.161ZM578.865 175.925C585.536 175.925 590.945 170.658 590.945 164.161C590.945 157.665 585.536 152.398 578.865 152.398C572.193 152.398 566.784 157.665 566.784 164.161C566.784 170.658 572.193 175.925 578.865 175.925ZM540.898 68.0359C540.898 66.2972 539.489 64.8878 537.75 64.8878H500.903C499.164 64.8878 497.754 66.2973 497.754 68.0359V100.64C497.754 102.379 499.164 103.788 500.903 103.788H537.75C539.489 103.788 540.898 102.379 540.898 100.64V68.0359ZM587.797 64.8878C589.536 64.8878 590.945 66.2972 590.945 68.0359V100.64C590.945 102.379 589.536 103.788 587.797 103.788H550.949C549.211 103.788 547.801 102.379 547.801 100.64V68.0359C547.801 66.2973 549.211 64.8878 550.949 64.8878H587.797Z" fill="white"/>
<ellipse cx="544.35" cy="34.7635" rx="12.0803" ry="11.7635" fill="#F3F1F1"/>
</g>
<defs>
<filter id="filter0_d_659_41" x="1.5" y="45.9474" width="1045.82" height="204.934" filterUnits="userSpaceOnUse" color-interpolation-filters="sRGB">
<feFlood flood-opacity="0" result="BackgroundImageFix"/>
<feColorMatrix in="SourceAlpha" type="matrix" values="0 0 0 0 0 0 0 0 0 0 0 0 0 0 0 0 0 0 127 0" result="hardAlpha"/>
<feOffset dx="4" dy="4"/>
<feGaussianBlur stdDeviation="5"/>
<feComposite in2="hardAlpha" operator="out"/>
<feColorMatrix type="matrix" values="0 0 0 0 0 0 0 0 0 0 0 0 0 0 0 0 0 0 0.25 0"/>
<feBlend mode="normal" in2="BackgroundImageFix" result="effect1_dropShadow_659_41"/>
<feBlend mode="normal" in="SourceGraphic" in2="effect1_dropShadow_659_41" result="shape"/>
</filter>
<filter id="filter1_d_659_41" x="475.616" y="167.513" width="64.6677" height="64.1749" filterUnits="userSpaceOnUse" color-interpolation-filters="sRGB">
<feFlood flood-opacity="0" result="BackgroundImageFix"/>
<feColorMatrix in="SourceAlpha" type="matrix" values="0 0 0 0 0 0 0 0 0 0 0 0 0 0 0 0 0 0 127 0" result="hardAlpha"/>
<feOffset/>
<feGaussianBlur stdDeviation="5.42414"/>
<feComposite in2="hardAlpha" operator="out"/>
<feColorMatrix type="matrix" values="0 0 0 0 0 0 0 0 0 0 0 0 0 0 0 0 0 0 0.25 0"/>
<feBlend mode="normal" in2="BackgroundImageFix" result="effect1_dropShadow_659_41"/>
<feBlend mode="normal" in="SourceGraphic" in2="effect1_dropShadow_659_41" result="shape"/>
</filter>
<filter id="filter2_d_659_41" x="548.716" y="167.513" width="64.6677" height="64.1749" filterUnits="userSpaceOnUse" color-interpolation-filters="sRGB">
<feFlood flood-opacity="0" result="BackgroundImageFix"/>
<feColorMatrix in="SourceAlpha" type="matrix" values="0 0 0 0 0 0 0 0 0 0 0 0 0 0 0 0 0 0 127 0" result="hardAlpha"/>
<feOffset/>
<feGaussianBlur stdDeviation="5.42414"/>
<feComposite in2="hardAlpha" operator="out"/>
<feColorMatrix type="matrix" values="0 0 0 0 0 0 0 0 0 0 0 0 0 0 0 0 0 0 0.25 0"/>
<feBlend mode="normal" in2="BackgroundImageFix" result="effect1_dropShadow_659_41"/>
<feBlend mode="normal" in="SourceGraphic" in2="effect1_dropShadow_659_41" result="shape"/>
</filter>
<filter id="filter3_d_659_41" x="477.2" y="12.8" width="134.3" height="188.449" filterUnits="userSpaceOnUse" color-interpolation-filters="sRGB">
<feFlood flood-opacity="0" result="BackgroundImageFix"/>
<feColorMatrix in="SourceAlpha" type="matrix" values="0 0 0 0 0 0 0 0 0 0 0 0 0 0 0 0 0 0 127 0" result="hardAlpha"/>
<feOffset/>
<feGaussianBlur stdDeviation="5.09998"/>
<feComposite in2="hardAlpha" operator="out"/>
<feColorMatrix type="matrix" values="0 0 0 0 0 0 0 0 0 0 0 0 0 0 0 0 0 0 0.25 0"/>
<feBlend mode="normal" in2="BackgroundImageFix" result="effect1_dropShadow_659_41"/>
<feBlend mode="normal" in="SourceGraphic" in2="effect1_dropShadow_659_41" result="shape"/>
</filter>
</defs>
</svg>
