<svg width="30" height="30" viewBox="0 0 30 30" fill="none" xmlns="http://www.w3.org/2000/svg">
<path d="M15 15C13.625 15 12.5 13.875 12.5 12.5C12.5 11.125 13.625 10 15 10C16.375 10 17.5 11.125 17.5 12.5C17.5 13.875 16.375 15 15 15ZM22.5 12.75C22.5 8.2125 19.1875 5 15 5C10.8125 5 7.5 8.2125 7.5 12.75C7.5 15.675 9.9375 19.55 15 24.175C20.0625 19.55 22.5 15.675 22.5 12.75ZM15 2.5C20.25 2.5 25 6.525 25 12.75C25 16.9 21.6625 21.8125 15 27.5C8.3375 21.8125 5 16.9 5 12.75C5 6.525 9.75 2.5 15 2.5Z" fill="white"/>
</svg>
