<svg width="25" height="40" viewBox="0 0 25 40" fill="none" xmlns="http://www.w3.org/2000/svg">
<path d="M22.3239 23.2517L12.5 39.9451L2.67613 23.2517C-1.14806 16.7533 -3.04933 0.0257886 12.4963 2.9778e-05C28.0499 0.0205562 26.1487 16.7523 22.3239 23.2517Z" fill="#7B7B7B"/>
<path d="M2.8642 17.7283H21.9129V15.6226V11.7548H16.2556H10.5982C6.01511 11.7548 2.8642 15.4564 2.8642 17.7283Z" fill="white"/>
<path d="M6.75992 15.5168H4.04358C5.78204 12.8673 8.31729 12.2049 9.36761 12.2049L6.75992 15.5168Z" fill="#7B7B7B"/>
<path d="M3.53815 17.3719L21.3972 17.3719" stroke="#7B7B7B" stroke-width="0.0824053"/>
<path d="M17.5221 12.0267L20.5548 10.8223V9.71045H19.4717" stroke="white" stroke-width="0.329621" stroke-linecap="round" stroke-linejoin="round"/>
<rect x="10.6144" y="12.7394" width="11.7937" height="2.31626" rx="0.329621" fill="#7B7B7B"/>
</svg>
