<svg width="60" height="60" viewBox="0 0 60 60" fill="none" xmlns="http://www.w3.org/2000/svg">
<rect width="60" height="60" fill="#898989"/>
<rect x="8" y="8" width="44" height="44" rx="7" fill="#C4C4C4"/>
<path d="M23.539 25.975H19.615V37H17.194V25.975H13.27V23.986H23.539V25.975ZM46.3153 34.93C46.5553 34.93 46.7443 34.999 46.8823 35.137C47.0263 35.269 47.0983 35.446 47.0983 35.668V37H38.1703V36.262C38.1703 36.112 38.2003 35.956 38.2603 35.794C38.3263 35.626 38.4283 35.476 38.5663 35.344L42.5173 31.384C42.8473 31.048 43.1413 30.727 43.3993 30.421C43.6633 30.115 43.8823 29.812 44.0563 29.512C44.2303 29.212 44.3623 28.909 44.4523 28.603C44.5483 28.291 44.5963 27.964 44.5963 27.622C44.5963 27.31 44.5513 27.037 44.4613 26.803C44.3713 26.563 44.2423 26.362 44.0743 26.2C43.9123 26.038 43.7143 25.918 43.4803 25.84C43.2523 25.756 42.9943 25.714 42.7063 25.714C42.4423 25.714 42.1963 25.753 41.9683 25.831C41.7463 25.903 41.5483 26.008 41.3743 26.146C41.2003 26.278 41.0533 26.434 40.9333 26.614C40.8133 26.794 40.7233 26.992 40.6633 27.208C40.5613 27.484 40.4293 27.667 40.2673 27.757C40.1053 27.847 39.8713 27.868 39.5653 27.82L38.3953 27.613C38.4853 26.989 38.6593 26.443 38.9173 25.975C39.1753 25.501 39.4963 25.108 39.8803 24.796C40.2703 24.478 40.7143 24.241 41.2123 24.085C41.7163 23.923 42.2563 23.842 42.8323 23.842C43.4323 23.842 43.9813 23.932 44.4793 24.112C44.9773 24.286 45.4033 24.535 45.7573 24.859C46.1113 25.183 46.3873 25.573 46.5853 26.029C46.7833 26.485 46.8823 26.992 46.8823 27.55C46.8823 28.03 46.8103 28.474 46.6663 28.882C46.5283 29.29 46.3393 29.68 46.0993 30.052C45.8653 30.424 45.5893 30.784 45.2713 31.132C44.9533 31.48 44.6203 31.834 44.2723 32.194L41.3383 35.191C41.6203 35.107 41.8993 35.044 42.1753 35.002C42.4573 34.954 42.7243 34.93 42.9763 34.93H46.3153Z" fill="black"/>
<path d="M36.798 30.493C36.798 31.447 36.639 32.323 36.321 33.121C36.003 33.919 35.556 34.606 34.98 35.182C34.404 35.758 33.711 36.205 32.901 36.523C32.091 36.841 31.191 37 30.201 37H25.242V23.986H30.201C31.191 23.986 32.091 24.148 32.901 24.472C33.711 24.79 34.404 25.237 34.98 25.813C35.556 26.383 36.003 27.067 36.321 27.865C36.639 28.663 36.798 29.539 36.798 30.493ZM34.314 30.493C34.314 29.779 34.218 29.14 34.026 28.576C33.84 28.006 33.567 27.526 33.207 27.136C32.853 26.74 32.421 26.437 31.911 26.227C31.407 26.017 30.837 25.912 30.201 25.912H27.672V35.074H30.201C30.837 35.074 31.407 34.969 31.911 34.759C32.421 34.549 32.853 34.249 33.207 33.859C33.567 33.463 33.84 32.983 34.026 32.419C34.218 31.849 34.314 31.207 34.314 30.493Z" fill="#FF0000"/>
</svg>
