<svg width="422" height="296" viewBox="0 0 422 296" fill="none" xmlns="http://www.w3.org/2000/svg">
<path d="M9.32302 168.093L252.745 290.956C257.124 293.166 262.462 291.278 264.477 286.806L275.756 261.786L18.2313 129.684L5.42101 156.716C3.41988 160.939 5.15134 165.987 9.32302 168.093Z" fill="white"/>
<path d="M24.6835 129.8L271.788 255.896C276.15 243.931 278.835 227.281 280.412 211.029C282.229 192.309 282.505 174.997 282.505 167.939C282.505 160.983 286.666 155.266 292.077 151.261C297.536 147.219 304.891 144.383 313.098 143.051C328.788 140.504 348.597 143.285 366.805 155.149L394.174 143.968C393.442 143.18 392.703 142.385 391.958 141.583C368.672 116.521 339.115 84.7104 308.357 58.0648C291.166 43.1726 273.765 30.0424 257.045 20.6605C240.257 11.24 224.628 5.86873 210.864 5.86873C185.768 5.86873 148.585 16.2407 112.501 37.8003C77.9356 58.4528 44.9028 89.062 24.6835 129.8Z" fill="#E01C1C" stroke="#D00000" stroke-width="11.7375"/>
<circle r="33.7452" transform="matrix(-1 0 0 1 387.513 157.094)" fill="white"/>
</svg>
