<svg width="160" height="145" viewBox="0 0 160 145" fill="none" xmlns="http://www.w3.org/2000/svg">
<path d="M80 0L160 145H80H0L80 0Z" fill="#F2E147"/>
<path d="M86.08 54.4465V84.3335C86.08 87.5033 85.9233 90.6209 85.6098 93.6862C85.2963 96.7167 84.8783 99.9388 84.3558 103.352H75.63C75.1075 99.9388 74.6895 96.7167 74.376 93.6862C74.0625 90.6209 73.9058 87.5033 73.9058 84.3335V54.4465H86.08ZM71.9203 122.894C71.9203 121.814 72.1118 120.787 72.495 119.811C72.913 118.836 73.4703 118 74.167 117.303C74.8985 116.607 75.7519 116.049 76.7273 115.631C77.7026 115.213 78.7476 115.004 79.8623 115.004C80.9421 115.004 81.9697 115.213 82.945 115.631C83.9203 116.049 84.7563 116.607 85.453 117.303C86.1497 118 86.707 118.836 87.125 119.811C87.543 120.787 87.752 121.814 87.752 122.894C87.752 124.009 87.543 125.054 87.125 126.029C86.707 126.969 86.1497 127.788 85.453 128.485C84.7563 129.181 83.9203 129.721 82.945 130.105C81.9697 130.523 80.9421 130.732 79.8623 130.732C78.7476 130.732 77.7026 130.523 76.7273 130.105C75.7519 129.721 74.8985 129.181 74.167 128.485C73.4703 127.788 72.913 126.969 72.495 126.029C72.1118 125.054 71.9203 124.009 71.9203 122.894Z" fill="black"/>
</svg>
