<svg width="60" height="60" viewBox="0 0 60 60" fill="none" xmlns="http://www.w3.org/2000/svg">
<rect width="60" height="60" fill="#898989"/>
<path d="M20.088 25.672C20 25.816 19.908 25.924 19.812 25.996C19.716 26.06 19.596 26.092 19.452 26.092C19.3 26.092 19.128 26.028 18.936 25.9C18.752 25.772 18.52 25.632 18.24 25.48C17.968 25.32 17.644 25.176 17.268 25.048C16.892 24.912 16.444 24.844 15.924 24.844C15.444 24.844 15.02 24.904 14.652 25.024C14.292 25.144 13.988 25.312 13.74 25.528C13.492 25.744 13.304 26 13.176 26.296C13.056 26.584 12.996 26.9 12.996 27.244C12.996 27.684 13.112 28.052 13.344 28.348C13.576 28.636 13.88 28.884 14.256 29.092C14.64 29.3 15.076 29.484 15.564 29.644C16.052 29.796 16.548 29.96 17.052 30.136C17.564 30.312 18.064 30.512 18.552 30.736C19.04 30.96 19.472 31.244 19.848 31.588C20.232 31.932 20.54 32.352 20.772 32.848C21.004 33.344 21.12 33.948 21.12 34.66C21.12 35.428 20.988 36.148 20.724 36.82C20.46 37.492 20.076 38.08 19.572 38.584C19.076 39.08 18.46 39.472 17.724 39.76C16.996 40.048 16.164 40.192 15.228 40.192C14.676 40.192 14.136 40.136 13.608 40.024C13.088 39.92 12.588 39.772 12.108 39.58C11.636 39.38 11.192 39.14 10.776 38.86C10.36 38.58 9.988 38.268 9.66 37.924L10.476 36.58C10.548 36.468 10.64 36.38 10.752 36.316C10.864 36.252 10.988 36.22 11.124 36.22C11.308 36.22 11.512 36.308 11.736 36.484C11.96 36.652 12.228 36.84 12.54 37.048C12.86 37.248 13.244 37.436 13.692 37.612C14.14 37.78 14.676 37.864 15.3 37.864C16.316 37.864 17.1 37.616 17.652 37.12C18.212 36.624 18.492 35.94 18.492 35.068C18.492 34.58 18.376 34.184 18.144 33.88C17.912 33.568 17.604 33.308 17.22 33.1C16.844 32.892 16.412 32.716 15.924 32.572C15.436 32.428 14.94 32.276 14.436 32.116C13.932 31.948 13.436 31.756 12.948 31.54C12.46 31.316 12.024 31.028 11.64 30.676C11.264 30.316 10.96 29.876 10.728 29.356C10.496 28.828 10.38 28.172 10.38 27.388C10.38 26.764 10.5 26.16 10.74 25.576C10.988 24.992 11.344 24.476 11.808 24.028C12.28 23.572 12.86 23.208 13.548 22.936C14.236 22.664 15.02 22.528 15.9 22.528C16.892 22.528 17.8 22.684 18.624 22.996C19.456 23.308 20.172 23.752 20.772 24.328L20.088 25.672ZM36.1536 36.148C36.3056 36.148 36.4376 36.208 36.5496 36.328L37.6656 37.54C36.9616 38.388 36.0976 39.044 35.0736 39.508C34.0496 39.964 32.8256 40.192 31.4016 40.192C30.1376 40.192 28.9936 39.976 27.9696 39.544C26.9536 39.104 26.0856 38.496 25.3656 37.72C24.6456 36.936 24.0896 36.004 23.6976 34.924C23.3136 33.844 23.1216 32.656 23.1216 31.36C23.1216 30.064 23.3256 28.876 23.7336 27.796C24.1496 26.708 24.7296 25.776 25.4736 25C26.2256 24.216 27.1216 23.608 28.1616 23.176C29.2096 22.744 30.3616 22.528 31.6176 22.528C32.8656 22.528 33.9656 22.732 34.9176 23.14C35.8776 23.54 36.7096 24.076 37.4136 24.748L36.4896 26.056C36.4256 26.144 36.3496 26.22 36.2616 26.284C36.1736 26.348 36.0536 26.38 35.9016 26.38C35.7416 26.38 35.5576 26.308 35.3496 26.164C35.1496 26.012 34.8896 25.848 34.5696 25.672C34.2576 25.488 33.8616 25.324 33.3816 25.18C32.9096 25.028 32.3176 24.952 31.6056 24.952C30.7816 24.952 30.0256 25.096 29.3376 25.384C28.6496 25.672 28.0576 26.092 27.5616 26.644C27.0656 27.196 26.6776 27.868 26.3976 28.66C26.1256 29.452 25.9896 30.352 25.9896 31.36C25.9896 32.376 26.1336 33.284 26.4216 34.084C26.7096 34.876 27.1056 35.548 27.6096 36.1C28.1136 36.644 28.7056 37.06 29.3856 37.348C30.0656 37.636 30.7976 37.78 31.5816 37.78C32.0616 37.78 32.4896 37.756 32.8656 37.708C33.2496 37.652 33.6016 37.568 33.9216 37.456C34.2416 37.336 34.5416 37.188 34.8216 37.012C35.1096 36.836 35.3936 36.62 35.6736 36.364C35.8336 36.22 35.9936 36.148 36.1536 36.148ZM49.1271 25.672C49.0391 25.816 48.9471 25.924 48.8511 25.996C48.7551 26.06 48.6351 26.092 48.4911 26.092C48.3391 26.092 48.1671 26.028 47.9751 25.9C47.7911 25.772 47.5591 25.632 47.2791 25.48C47.0071 25.32 46.6831 25.176 46.3071 25.048C45.9311 24.912 45.4831 24.844 44.9631 24.844C44.4831 24.844 44.0591 24.904 43.6911 25.024C43.3311 25.144 43.0271 25.312 42.7791 25.528C42.5311 25.744 42.3431 26 42.2151 26.296C42.0951 26.584 42.0351 26.9 42.0351 27.244C42.0351 27.684 42.1511 28.052 42.3831 28.348C42.6151 28.636 42.9191 28.884 43.2951 29.092C43.6791 29.3 44.1151 29.484 44.6031 29.644C45.0911 29.796 45.5871 29.96 46.0911 30.136C46.6031 30.312 47.1031 30.512 47.5911 30.736C48.0791 30.96 48.5111 31.244 48.8871 31.588C49.2711 31.932 49.5791 32.352 49.8111 32.848C50.0431 33.344 50.1591 33.948 50.1591 34.66C50.1591 35.428 50.0271 36.148 49.7631 36.82C49.4991 37.492 49.1151 38.08 48.6111 38.584C48.1151 39.08 47.4991 39.472 46.7631 39.76C46.0351 40.048 45.2031 40.192 44.2671 40.192C43.7151 40.192 43.1751 40.136 42.6471 40.024C42.1271 39.92 41.6271 39.772 41.1471 39.58C40.6751 39.38 40.2311 39.14 39.8151 38.86C39.3991 38.58 39.0271 38.268 38.6991 37.924L39.5151 36.58C39.5871 36.468 39.6791 36.38 39.7911 36.316C39.9031 36.252 40.0271 36.22 40.1631 36.22C40.3471 36.22 40.5511 36.308 40.7751 36.484C40.9991 36.652 41.2671 36.84 41.5791 37.048C41.8991 37.248 42.2831 37.436 42.7311 37.612C43.1791 37.78 43.7151 37.864 44.3391 37.864C45.3551 37.864 46.1391 37.616 46.6911 37.12C47.2511 36.624 47.5311 35.94 47.5311 35.068C47.5311 34.58 47.4151 34.184 47.1831 33.88C46.9511 33.568 46.6431 33.308 46.2591 33.1C45.8831 32.892 45.4511 32.716 44.9631 32.572C44.4751 32.428 43.9791 32.276 43.4751 32.116C42.9711 31.948 42.4751 31.756 41.9871 31.54C41.4991 31.316 41.0631 31.028 40.6791 30.676C40.3031 30.316 39.9991 29.876 39.7671 29.356C39.5351 28.828 39.4191 28.172 39.4191 27.388C39.4191 26.764 39.5391 26.16 39.7791 25.576C40.0271 24.992 40.3831 24.476 40.8471 24.028C41.3191 23.572 41.8991 23.208 42.5871 22.936C43.2751 22.664 44.0591 22.528 44.9391 22.528C45.9311 22.528 46.8391 22.684 47.6631 22.996C48.4951 23.308 49.2111 23.752 49.8111 24.328L49.1271 25.672Z" fill="#84E1FF"/>
</svg>
