<svg width="144" height="147" viewBox="0 0 144 147" fill="none" xmlns="http://www.w3.org/2000/svg">
<g filter="url(#filter0_d_1343_19)">
<path d="M115.039 101.247C116.397 98.6665 115.405 95.4739 112.824 94.1167C110.243 92.7594 107.05 93.7514 105.693 96.3323L115.039 101.247ZM89.4447 44.0402L94.1179 46.4977L99.0329 37.1513L94.3597 34.6938L89.4447 44.0402ZM105.693 96.3323C95.7398 115.259 72.3278 122.534 53.4008 112.581L48.4858 121.927C72.5746 134.595 102.372 125.336 115.039 101.247L105.693 96.3323ZM53.4008 112.581C34.4739 102.627 27.1993 79.2155 37.1525 60.2885L27.8061 55.3735C15.1383 79.4623 24.397 109.259 48.4858 121.927L53.4008 112.581ZM37.1525 60.2885C47.1057 41.3616 70.5177 34.087 89.4447 44.0402L94.3597 34.6938C70.2709 22.026 40.4738 31.2846 27.8061 55.3735L37.1525 60.2885Z" fill="white"/>
<path d="M91.2258 38.7627L101.056 20.0698L116.15 51.8695L81.3956 57.4555L91.2258 38.7627Z" fill="white"/>
</g>
<defs>
<filter id="filter0_d_1343_19" x="18.1328" y="20.0698" width="102.017" height="115.531" filterUnits="userSpaceOnUse" color-interpolation-filters="sRGB">
<feFlood flood-opacity="0" result="BackgroundImageFix"/>
<feColorMatrix in="SourceAlpha" type="matrix" values="0 0 0 0 0 0 0 0 0 0 0 0 0 0 0 0 0 0 127 0" result="hardAlpha"/>
<feOffset dy="4"/>
<feGaussianBlur stdDeviation="2"/>
<feComposite in2="hardAlpha" operator="out"/>
<feColorMatrix type="matrix" values="0 0 0 0 0 0 0 0 0 0 0 0 0 0 0 0 0 0 0.25 0"/>
<feBlend mode="normal" in2="BackgroundImageFix" result="effect1_dropShadow_1343_19"/>
<feBlend mode="normal" in="SourceGraphic" in2="effect1_dropShadow_1343_19" result="shape"/>
</filter>
</defs>
</svg>
