<svg width="60" height="60" viewBox="0 0 60 60" fill="none" xmlns="http://www.w3.org/2000/svg">
<rect width="60" height="60" fill="#898989"/>
<path d="M36.7076 8.103V21H35.1776V11.523C35.1776 11.397 35.1806 11.262 35.1866 11.118C35.1986 10.974 35.2106 10.827 35.2226 10.677L30.7946 18.741C30.6566 19.011 30.4466 19.146 30.1646 19.146H29.9126C29.6306 19.146 29.4206 19.011 29.2826 18.741L24.7646 10.641C24.8006 10.959 24.8186 11.253 24.8186 11.523V21H23.2886V8.103H24.5756C24.7316 8.103 24.8516 8.118 24.9356 8.148C25.0196 8.178 25.1006 8.262 25.1786 8.4L29.6336 16.338C29.7056 16.482 29.7746 16.632 29.8406 16.788C29.9126 16.944 29.9786 17.103 30.0386 17.265C30.0986 17.103 30.1616 16.944 30.2276 16.788C30.2936 16.626 30.3656 16.473 30.4436 16.329L34.8176 8.4C34.8896 8.262 34.9676 8.178 35.0516 8.148C35.1416 8.118 35.2646 8.103 35.4206 8.103H36.7076ZM34.3193 31.564H30.6473V35.434H29.3423V31.564H25.6883V30.349H29.3423V26.506H30.6473V30.349H34.3193V31.564ZM22.4588 42.119C22.4048 42.209 22.3448 42.278 22.2788 42.326C22.2188 42.368 22.1438 42.389 22.0538 42.389C21.9518 42.389 21.8318 42.338 21.6938 42.236C21.5558 42.134 21.3818 42.023 21.1718 41.903C20.9678 41.777 20.7188 41.663 20.4248 41.561C20.1368 41.459 19.7858 41.408 19.3718 41.408C18.9818 41.408 18.6368 41.462 18.3368 41.57C18.0428 41.672 17.7938 41.813 17.5898 41.993C17.3918 42.173 17.2418 42.386 17.1398 42.632C17.0378 42.872 16.9868 43.133 16.9868 43.415C16.9868 43.775 17.0738 44.075 17.2478 44.315C17.4278 44.549 17.6618 44.75 17.9498 44.918C18.2438 45.086 18.5738 45.233 18.9398 45.359C19.3118 45.479 19.6898 45.605 20.0738 45.737C20.4638 45.869 20.8418 46.019 21.2078 46.187C21.5798 46.349 21.9098 46.556 22.1978 46.808C22.4918 47.06 22.7258 47.369 22.8998 47.735C23.0798 48.101 23.1698 48.551 23.1698 49.085C23.1698 49.649 23.0738 50.18 22.8818 50.678C22.6898 51.17 22.4078 51.599 22.0358 51.965C21.6698 52.331 21.2168 52.619 20.6768 52.829C20.1428 53.039 19.5338 53.144 18.8498 53.144C18.0098 53.144 17.2478 52.994 16.5638 52.694C15.8798 52.388 15.2948 51.977 14.8088 51.461L15.3128 50.633C15.3608 50.567 15.4178 50.513 15.4838 50.471C15.5558 50.423 15.6338 50.399 15.7178 50.399C15.7958 50.399 15.8828 50.432 15.9788 50.498C16.0808 50.558 16.1948 50.636 16.3208 50.732C16.4468 50.828 16.5908 50.933 16.7528 51.047C16.9148 51.161 17.0978 51.266 17.3018 51.362C17.5118 51.458 17.7488 51.539 18.0128 51.605C18.2768 51.665 18.5738 51.695 18.9038 51.695C19.3178 51.695 19.6868 51.638 20.0108 51.524C20.3348 51.41 20.6078 51.251 20.8298 51.047C21.0578 50.837 21.2318 50.588 21.3518 50.3C21.4718 50.012 21.5318 49.691 21.5318 49.337C21.5318 48.947 21.4418 48.629 21.2618 48.383C21.0878 48.131 20.8568 47.921 20.5688 47.753C20.2808 47.585 19.9508 47.444 19.5788 47.33C19.2068 47.21 18.8288 47.09 18.4448 46.97C18.0608 46.844 17.6828 46.7 17.3108 46.538C16.9388 46.376 16.6088 46.166 16.3208 45.908C16.0328 45.65 15.7988 45.329 15.6188 44.945C15.4448 44.555 15.3578 44.075 15.3578 43.505C15.3578 43.049 15.4448 42.608 15.6188 42.182C15.7988 41.756 16.0568 41.378 16.3928 41.048C16.7348 40.718 17.1518 40.454 17.6438 40.256C18.1418 40.058 18.7118 39.959 19.3538 39.959C20.0738 39.959 20.7278 40.073 21.3158 40.301C21.9098 40.529 22.4318 40.859 22.8818 41.291L22.4588 42.119ZM34.6893 50.336C34.7853 50.336 34.8693 50.375 34.9413 50.453L35.6343 51.2C35.1063 51.812 34.4643 52.289 33.7083 52.631C32.9583 52.973 32.0493 53.144 30.9813 53.144C30.0573 53.144 29.2173 52.985 28.4613 52.667C27.7053 52.343 27.0603 51.893 26.5263 51.317C25.9923 50.735 25.5783 50.039 25.2843 49.229C24.9903 48.419 24.8433 47.528 24.8433 46.556C24.8433 45.584 24.9963 44.693 25.3023 43.883C25.6083 43.073 26.0373 42.377 26.5893 41.795C27.1473 41.213 27.8133 40.763 28.5873 40.445C29.3613 40.121 30.2163 39.959 31.1523 39.959C32.0703 39.959 32.8803 40.106 33.5823 40.4C34.2843 40.694 34.9023 41.093 35.4363 41.597L34.8603 42.398C34.8243 42.458 34.7763 42.509 34.7163 42.551C34.6623 42.587 34.5873 42.605 34.4913 42.605C34.3833 42.605 34.2513 42.548 34.0953 42.434C33.9393 42.314 33.7353 42.182 33.4833 42.038C33.2313 41.894 32.9163 41.765 32.5383 41.651C32.1603 41.531 31.6953 41.471 31.1433 41.471C30.4773 41.471 29.8683 41.588 29.3163 41.822C28.7643 42.05 28.2873 42.383 27.8853 42.821C27.4893 43.259 27.1803 43.793 26.9583 44.423C26.7363 45.053 26.6253 45.764 26.6253 46.556C26.6253 47.36 26.7393 48.077 26.9673 48.707C27.2013 49.337 27.5163 49.871 27.9123 50.309C28.3143 50.741 28.7853 51.071 29.3253 51.299C29.8713 51.527 30.4593 51.641 31.0893 51.641C31.4733 51.641 31.8183 51.62 32.1243 51.578C32.4363 51.53 32.7213 51.458 32.9793 51.362C33.2433 51.266 33.4863 51.146 33.7083 51.002C33.9363 50.852 34.1613 50.675 34.3833 50.471C34.4853 50.381 34.5873 50.336 34.6893 50.336ZM44.2557 42.119C44.2017 42.209 44.1417 42.278 44.0757 42.326C44.0157 42.368 43.9407 42.389 43.8507 42.389C43.7487 42.389 43.6287 42.338 43.4907 42.236C43.3527 42.134 43.1787 42.023 42.9687 41.903C42.7647 41.777 42.5157 41.663 42.2217 41.561C41.9337 41.459 41.5827 41.408 41.1687 41.408C40.7787 41.408 40.4337 41.462 40.1337 41.57C39.8397 41.672 39.5907 41.813 39.3867 41.993C39.1887 42.173 39.0387 42.386 38.9367 42.632C38.8347 42.872 38.7837 43.133 38.7837 43.415C38.7837 43.775 38.8707 44.075 39.0447 44.315C39.2247 44.549 39.4587 44.75 39.7467 44.918C40.0407 45.086 40.3707 45.233 40.7367 45.359C41.1087 45.479 41.4867 45.605 41.8707 45.737C42.2607 45.869 42.6387 46.019 43.0047 46.187C43.3767 46.349 43.7067 46.556 43.9947 46.808C44.2887 47.06 44.5227 47.369 44.6967 47.735C44.8767 48.101 44.9667 48.551 44.9667 49.085C44.9667 49.649 44.8707 50.18 44.6787 50.678C44.4867 51.17 44.2047 51.599 43.8327 51.965C43.4667 52.331 43.0137 52.619 42.4737 52.829C41.9397 53.039 41.3307 53.144 40.6467 53.144C39.8067 53.144 39.0447 52.994 38.3607 52.694C37.6767 52.388 37.0917 51.977 36.6057 51.461L37.1097 50.633C37.1577 50.567 37.2147 50.513 37.2807 50.471C37.3527 50.423 37.4307 50.399 37.5147 50.399C37.5927 50.399 37.6797 50.432 37.7757 50.498C37.8777 50.558 37.9917 50.636 38.1177 50.732C38.2437 50.828 38.3877 50.933 38.5497 51.047C38.7117 51.161 38.8947 51.266 39.0987 51.362C39.3087 51.458 39.5457 51.539 39.8097 51.605C40.0737 51.665 40.3707 51.695 40.7007 51.695C41.1147 51.695 41.4837 51.638 41.8077 51.524C42.1317 51.41 42.4047 51.251 42.6267 51.047C42.8547 50.837 43.0287 50.588 43.1487 50.3C43.2687 50.012 43.3287 49.691 43.3287 49.337C43.3287 48.947 43.2387 48.629 43.0587 48.383C42.8847 48.131 42.6537 47.921 42.3657 47.753C42.0777 47.585 41.7477 47.444 41.3757 47.33C41.0037 47.21 40.6257 47.09 40.2417 46.97C39.8577 46.844 39.4797 46.7 39.1077 46.538C38.7357 46.376 38.4057 46.166 38.1177 45.908C37.8297 45.65 37.5957 45.329 37.4157 44.945C37.2417 44.555 37.1547 44.075 37.1547 43.505C37.1547 43.049 37.2417 42.608 37.4157 42.182C37.5957 41.756 37.8537 41.378 38.1897 41.048C38.5317 40.718 38.9487 40.454 39.4407 40.256C39.9387 40.058 40.5087 39.959 41.1507 39.959C41.8707 39.959 42.5247 40.073 43.1127 40.301C43.7067 40.529 44.2287 40.859 44.6787 41.291L44.2557 42.119Z" fill="white"/>
</svg>
