<svg width="144" height="144" viewBox="0 0 144 144" fill="none" xmlns="http://www.w3.org/2000/svg">
<path d="M67.4283 9.79351L67.8252 31.2232H79.5983L79.8628 9.79351H67.4283ZM67.8252 110.989L67.4283 132.816H79.8628L79.466 110.989H67.8252ZM91.6359 51.33L103.938 43.7899C102.439 40.527 100.322 37.3963 97.5886 34.3979C94.9429 31.3995 91.5918 28.9303 87.5352 26.9901C83.5667 25.05 78.8046 24.0799 73.2487 24.0799C67.6929 24.0799 62.7103 25.1382 58.3009 27.2547C53.8915 29.3712 50.4081 32.1932 47.8506 35.7207C45.3814 39.2483 44.1467 43.1726 44.1467 47.4938C44.1467 51.9032 44.9404 55.6512 46.5278 58.7378C48.1152 61.8243 50.1435 64.47 52.6128 66.6747C55.082 68.7912 57.6836 70.5549 60.4174 71.9659C63.2394 73.2888 65.7969 74.347 68.0897 75.1407C71.6173 76.4635 74.9243 77.8745 78.0109 79.3737C81.1856 80.8729 83.7431 82.7249 85.6832 84.9296C87.7115 87.0461 88.7257 89.824 88.7257 93.2633C88.7257 95.9089 88.1966 98.2018 87.1383 100.142C86.1683 101.994 84.625 103.405 82.5085 104.375C80.4801 105.345 77.8786 105.83 74.7038 105.83C71.0881 105.83 67.8693 105.08 65.0473 103.581C62.3134 102.082 59.8001 99.9215 57.5072 97.0995C55.2143 94.2775 53.0978 90.8381 51.1577 86.7815L39.12 94.5861C41.0602 99.3483 43.7499 103.581 47.1892 107.285C50.6286 110.989 54.6411 113.943 59.2269 116.148C63.8126 118.265 68.7512 119.323 74.0424 119.323C80.6565 119.323 86.2564 118.265 90.8422 116.148C95.428 113.943 98.9555 110.813 101.425 106.756C103.894 102.699 105.129 97.9814 105.129 92.6019C105.129 88.4571 104.423 84.8414 103.012 81.7548C101.601 78.6682 99.7492 76.0667 97.4563 73.9502C95.1634 71.7455 92.606 69.8935 89.784 68.3943C87.0501 66.8951 84.3604 65.6605 81.7148 64.6904C78.0109 63.2794 74.5275 61.8684 71.2645 60.4574C68.0016 59.0464 65.3559 57.3709 63.3276 55.4307C61.2993 53.4906 60.2851 51.0213 60.2851 48.0229C60.2851 45.7301 60.7261 43.7899 61.6079 42.2025C62.578 40.527 64.0331 39.2483 65.9732 38.3664C68.0016 37.4845 70.559 37.0436 73.6456 37.0436C76.644 37.0436 79.2455 37.705 81.4502 39.0278C83.6549 40.3506 85.5509 42.1144 87.1383 44.319C88.8139 46.4356 90.3131 48.7725 91.6359 51.33Z" fill="white"/>
</svg>
