<svg width="60" height="60" viewBox="0 0 60 60" fill="none" xmlns="http://www.w3.org/2000/svg">
<rect width="60" height="60" fill="#898989"/>
<path d="M19.088 40.672C19 40.816 18.908 40.924 18.812 40.996C18.716 41.06 18.596 41.092 18.452 41.092C18.3 41.092 18.128 41.028 17.936 40.9C17.752 40.772 17.52 40.632 17.24 40.48C16.968 40.32 16.644 40.176 16.268 40.048C15.892 39.912 15.444 39.844 14.924 39.844C14.444 39.844 14.02 39.904 13.652 40.024C13.292 40.144 12.988 40.312 12.74 40.528C12.492 40.744 12.304 41 12.176 41.296C12.056 41.584 11.996 41.9 11.996 42.244C11.996 42.684 12.112 43.052 12.344 43.348C12.576 43.636 12.88 43.884 13.256 44.092C13.64 44.3 14.076 44.484 14.564 44.644C15.052 44.796 15.548 44.96 16.052 45.136C16.564 45.312 17.064 45.512 17.552 45.736C18.04 45.96 18.472 46.244 18.848 46.588C19.232 46.932 19.54 47.352 19.772 47.848C20.004 48.344 20.12 48.948 20.12 49.66C20.12 50.428 19.988 51.148 19.724 51.82C19.46 52.492 19.076 53.08 18.572 53.584C18.076 54.08 17.46 54.472 16.724 54.76C15.996 55.048 15.164 55.192 14.228 55.192C13.676 55.192 13.136 55.136 12.608 55.024C12.088 54.92 11.588 54.772 11.108 54.58C10.636 54.38 10.192 54.14 9.776 53.86C9.36 53.58 8.988 53.268 8.66 52.924L9.476 51.58C9.548 51.468 9.64 51.38 9.752 51.316C9.864 51.252 9.988 51.22 10.124 51.22C10.308 51.22 10.512 51.308 10.736 51.484C10.96 51.652 11.228 51.84 11.54 52.048C11.86 52.248 12.244 52.436 12.692 52.612C13.14 52.78 13.676 52.864 14.3 52.864C15.316 52.864 16.1 52.616 16.652 52.12C17.212 51.624 17.492 50.94 17.492 50.068C17.492 49.58 17.376 49.184 17.144 48.88C16.912 48.568 16.604 48.308 16.22 48.1C15.844 47.892 15.412 47.716 14.924 47.572C14.436 47.428 13.94 47.276 13.436 47.116C12.932 46.948 12.436 46.756 11.948 46.54C11.46 46.316 11.024 46.028 10.64 45.676C10.264 45.316 9.96 44.876 9.728 44.356C9.496 43.828 9.38 43.172 9.38 42.388C9.38 41.764 9.5 41.16 9.74 40.576C9.988 39.992 10.344 39.476 10.808 39.028C11.28 38.572 11.86 38.208 12.548 37.936C13.236 37.664 14.02 37.528 14.9 37.528C15.892 37.528 16.8 37.684 17.624 37.996C18.456 38.308 19.172 38.752 19.772 39.328L19.088 40.672ZM28.5296 46.528C29.1536 46.528 29.7016 46.448 30.1736 46.288C30.6536 46.128 31.0496 45.904 31.3616 45.616C31.6816 45.32 31.9216 44.964 32.0816 44.548C32.2416 44.132 32.3216 43.668 32.3216 43.156C32.3216 42.652 32.2416 42.2 32.0816 41.8C31.9296 41.4 31.6976 41.06 31.3856 40.78C31.0736 40.5 30.6776 40.288 30.1976 40.144C29.7256 39.992 29.1696 39.916 28.5296 39.916H25.9616V46.528H28.5296ZM28.5296 37.72C29.6576 37.72 30.6336 37.852 31.4576 38.116C32.2896 38.38 32.9736 38.752 33.5096 39.232C34.0536 39.704 34.4576 40.276 34.7216 40.948C34.9856 41.612 35.1176 42.348 35.1176 43.156C35.1176 43.98 34.9776 44.736 34.6976 45.424C34.4176 46.104 34.0016 46.692 33.4496 47.188C32.8976 47.676 32.2096 48.06 31.3856 48.34C30.5696 48.612 29.6176 48.748 28.5296 48.748H25.9616V55H23.1536V37.72H28.5296ZM40.61 45.112H41.414C41.718 45.112 41.966 45.072 42.158 44.992C42.35 44.904 42.522 44.768 42.674 44.584L47.906 38.344C48.09 38.112 48.278 37.952 48.47 37.864C48.67 37.768 48.918 37.72 49.214 37.72H51.614L45.434 45.016C45.266 45.224 45.102 45.4 44.942 45.544C44.79 45.68 44.622 45.792 44.438 45.88C44.678 45.968 44.894 46.092 45.086 46.252C45.278 46.404 45.466 46.608 45.65 46.864L52.058 55H49.61C49.434 55 49.282 54.988 49.154 54.964C49.034 54.94 48.926 54.904 48.83 54.856C48.742 54.808 48.662 54.748 48.59 54.676C48.526 54.604 48.466 54.524 48.41 54.436L43.01 47.836C42.93 47.732 42.85 47.644 42.77 47.572C42.69 47.5 42.594 47.44 42.482 47.392C42.378 47.344 42.258 47.312 42.122 47.296C41.986 47.272 41.826 47.26 41.642 47.26H40.61V55H37.802V37.72H40.61V45.112Z" fill="#F2E147"/>
<path d="M38.436 8.72V26H35.964V14.156C35.964 13.964 35.968 13.756 35.976 13.532C35.992 13.3 36.012 13.068 36.036 12.836L30.48 23.096C30.264 23.52 29.932 23.732 29.484 23.732H29.088C28.632 23.732 28.3 23.52 28.092 23.096L22.452 12.812C22.476 13.044 22.492 13.276 22.5 13.508C22.516 13.74 22.524 13.956 22.524 14.156V26H20.052V8.72H22.152C22.4 8.72 22.592 8.744 22.728 8.792C22.864 8.832 22.988 8.964 23.1 9.188L28.644 19.232C28.764 19.464 28.876 19.704 28.98 19.952C29.092 20.192 29.192 20.44 29.28 20.696C29.376 20.44 29.476 20.188 29.58 19.94C29.692 19.684 29.808 19.44 29.928 19.208L35.388 9.188C35.5 8.964 35.624 8.832 35.76 8.792C35.896 8.744 36.088 8.72 36.336 8.72H38.436Z" fill="#FFB800"/>
</svg>
