<svg width="60" height="60" viewBox="0 0 60 60" fill="none" xmlns="http://www.w3.org/2000/svg">
<rect width="60" height="60" fill="#898989"/>
<path d="M19.088 39.672C19 39.816 18.908 39.924 18.812 39.996C18.716 40.06 18.596 40.092 18.452 40.092C18.3 40.092 18.128 40.028 17.936 39.9C17.752 39.772 17.52 39.632 17.24 39.48C16.968 39.32 16.644 39.176 16.268 39.048C15.892 38.912 15.444 38.844 14.924 38.844C14.444 38.844 14.02 38.904 13.652 39.024C13.292 39.144 12.988 39.312 12.74 39.528C12.492 39.744 12.304 40 12.176 40.296C12.056 40.584 11.996 40.9 11.996 41.244C11.996 41.684 12.112 42.052 12.344 42.348C12.576 42.636 12.88 42.884 13.256 43.092C13.64 43.3 14.076 43.484 14.564 43.644C15.052 43.796 15.548 43.96 16.052 44.136C16.564 44.312 17.064 44.512 17.552 44.736C18.04 44.96 18.472 45.244 18.848 45.588C19.232 45.932 19.54 46.352 19.772 46.848C20.004 47.344 20.12 47.948 20.12 48.66C20.12 49.428 19.988 50.148 19.724 50.82C19.46 51.492 19.076 52.08 18.572 52.584C18.076 53.08 17.46 53.472 16.724 53.76C15.996 54.048 15.164 54.192 14.228 54.192C13.676 54.192 13.136 54.136 12.608 54.024C12.088 53.92 11.588 53.772 11.108 53.58C10.636 53.38 10.192 53.14 9.776 52.86C9.36 52.58 8.988 52.268 8.66 51.924L9.476 50.58C9.548 50.468 9.64 50.38 9.752 50.316C9.864 50.252 9.988 50.22 10.124 50.22C10.308 50.22 10.512 50.308 10.736 50.484C10.96 50.652 11.228 50.84 11.54 51.048C11.86 51.248 12.244 51.436 12.692 51.612C13.14 51.78 13.676 51.864 14.3 51.864C15.316 51.864 16.1 51.616 16.652 51.12C17.212 50.624 17.492 49.94 17.492 49.068C17.492 48.58 17.376 48.184 17.144 47.88C16.912 47.568 16.604 47.308 16.22 47.1C15.844 46.892 15.412 46.716 14.924 46.572C14.436 46.428 13.94 46.276 13.436 46.116C12.932 45.948 12.436 45.756 11.948 45.54C11.46 45.316 11.024 45.028 10.64 44.676C10.264 44.316 9.96 43.876 9.728 43.356C9.496 42.828 9.38 42.172 9.38 41.388C9.38 40.764 9.5 40.16 9.74 39.576C9.988 38.992 10.344 38.476 10.808 38.028C11.28 37.572 11.86 37.208 12.548 36.936C13.236 36.664 14.02 36.528 14.9 36.528C15.892 36.528 16.8 36.684 17.624 36.996C18.456 37.308 19.172 37.752 19.772 38.328L19.088 39.672ZM28.5296 45.528C29.1536 45.528 29.7016 45.448 30.1736 45.288C30.6536 45.128 31.0496 44.904 31.3616 44.616C31.6816 44.32 31.9216 43.964 32.0816 43.548C32.2416 43.132 32.3216 42.668 32.3216 42.156C32.3216 41.652 32.2416 41.2 32.0816 40.8C31.9296 40.4 31.6976 40.06 31.3856 39.78C31.0736 39.5 30.6776 39.288 30.1976 39.144C29.7256 38.992 29.1696 38.916 28.5296 38.916H25.9616V45.528H28.5296ZM28.5296 36.72C29.6576 36.72 30.6336 36.852 31.4576 37.116C32.2896 37.38 32.9736 37.752 33.5096 38.232C34.0536 38.704 34.4576 39.276 34.7216 39.948C34.9856 40.612 35.1176 41.348 35.1176 42.156C35.1176 42.98 34.9776 43.736 34.6976 44.424C34.4176 45.104 34.0016 45.692 33.4496 46.188C32.8976 46.676 32.2096 47.06 31.3856 47.34C30.5696 47.612 29.6176 47.748 28.5296 47.748H25.9616V54H23.1536V36.72H28.5296ZM40.61 44.112H41.414C41.718 44.112 41.966 44.072 42.158 43.992C42.35 43.904 42.522 43.768 42.674 43.584L47.906 37.344C48.09 37.112 48.278 36.952 48.47 36.864C48.67 36.768 48.918 36.72 49.214 36.72H51.614L45.434 44.016C45.266 44.224 45.102 44.4 44.942 44.544C44.79 44.68 44.622 44.792 44.438 44.88C44.678 44.968 44.894 45.092 45.086 45.252C45.278 45.404 45.466 45.608 45.65 45.864L52.058 54H49.61C49.434 54 49.282 53.988 49.154 53.964C49.034 53.94 48.926 53.904 48.83 53.856C48.742 53.808 48.662 53.748 48.59 53.676C48.526 53.604 48.466 53.524 48.41 53.436L43.01 46.836C42.93 46.732 42.85 46.644 42.77 46.572C42.69 46.5 42.594 46.44 42.482 46.392C42.378 46.344 42.258 46.312 42.122 46.296C41.986 46.272 41.826 46.26 41.642 46.26H40.61V54H37.802V36.72H40.61V44.112Z" fill="#F2E147"/>
<path d="M29.068 15C29.708 15 30.268 14.924 30.748 14.772C31.228 14.612 31.628 14.392 31.948 14.112C32.268 13.832 32.508 13.5 32.668 13.116C32.828 12.724 32.908 12.292 32.908 11.82C32.908 10.876 32.596 10.156 31.972 9.66C31.348 9.164 30.404 8.916 29.14 8.916H26.86V15H29.068ZM37.204 24H34.696C34.2 24 33.84 23.808 33.616 23.424L29.584 17.604C29.448 17.404 29.3 17.26 29.14 17.172C28.98 17.084 28.74 17.04 28.42 17.04H26.86V24H24.052V6.72H29.14C30.276 6.72 31.252 6.836 32.068 7.068C32.892 7.3 33.568 7.632 34.096 8.064C34.624 8.488 35.012 9 35.26 9.6C35.516 10.2 35.644 10.868 35.644 11.604C35.644 12.204 35.552 12.764 35.368 13.284C35.192 13.804 34.932 14.276 34.588 14.7C34.252 15.124 33.836 15.492 33.34 15.804C32.844 16.116 32.28 16.36 31.648 16.536C31.992 16.744 32.288 17.036 32.536 17.412L37.204 24Z" fill="#2B2B2B"/>
</svg>
