<svg width="60" height="60" viewBox="0 0 60 60" fill="none" xmlns="http://www.w3.org/2000/svg">
<rect width="60" height="60" fill="#898989"/>
<path d="M39.088 22.804V40H37.048V27.364C37.048 27.196 37.052 27.016 37.06 26.824C37.076 26.632 37.092 26.436 37.108 26.236L31.204 36.988C31.02 37.348 30.74 37.528 30.364 37.528H30.028C29.652 37.528 29.372 37.348 29.188 36.988L23.164 26.188C23.212 26.612 23.236 27.004 23.236 27.364V40H21.196V22.804H22.912C23.12 22.804 23.28 22.824 23.392 22.864C23.504 22.904 23.612 23.016 23.716 23.2L29.656 33.784C29.752 33.976 29.844 34.176 29.932 34.384C30.028 34.592 30.116 34.804 30.196 35.02C30.276 34.804 30.36 34.592 30.448 34.384C30.536 34.168 30.632 33.964 30.736 33.772L36.568 23.2C36.664 23.016 36.768 22.904 36.88 22.864C37 22.824 37.164 22.804 37.372 22.804H39.088Z" fill="white"/>
</svg>
