<svg width="60" height="60" viewBox="0 0 60 60" fill="none" xmlns="http://www.w3.org/2000/svg">
<rect width="60" height="60" fill="#898989"/>
<path d="M20.088 25.672C20 25.816 19.908 25.924 19.812 25.996C19.716 26.06 19.596 26.092 19.452 26.092C19.3 26.092 19.128 26.028 18.936 25.9C18.752 25.772 18.52 25.632 18.24 25.48C17.968 25.32 17.644 25.176 17.268 25.048C16.892 24.912 16.444 24.844 15.924 24.844C15.444 24.844 15.02 24.904 14.652 25.024C14.292 25.144 13.988 25.312 13.74 25.528C13.492 25.744 13.304 26 13.176 26.296C13.056 26.584 12.996 26.9 12.996 27.244C12.996 27.684 13.112 28.052 13.344 28.348C13.576 28.636 13.88 28.884 14.256 29.092C14.64 29.3 15.076 29.484 15.564 29.644C16.052 29.796 16.548 29.96 17.052 30.136C17.564 30.312 18.064 30.512 18.552 30.736C19.04 30.96 19.472 31.244 19.848 31.588C20.232 31.932 20.54 32.352 20.772 32.848C21.004 33.344 21.12 33.948 21.12 34.66C21.12 35.428 20.988 36.148 20.724 36.82C20.46 37.492 20.076 38.08 19.572 38.584C19.076 39.08 18.46 39.472 17.724 39.76C16.996 40.048 16.164 40.192 15.228 40.192C14.676 40.192 14.136 40.136 13.608 40.024C13.088 39.92 12.588 39.772 12.108 39.58C11.636 39.38 11.192 39.14 10.776 38.86C10.36 38.58 9.988 38.268 9.66 37.924L10.476 36.58C10.548 36.468 10.64 36.38 10.752 36.316C10.864 36.252 10.988 36.22 11.124 36.22C11.308 36.22 11.512 36.308 11.736 36.484C11.96 36.652 12.228 36.84 12.54 37.048C12.86 37.248 13.244 37.436 13.692 37.612C14.14 37.78 14.676 37.864 15.3 37.864C16.316 37.864 17.1 37.616 17.652 37.12C18.212 36.624 18.492 35.94 18.492 35.068C18.492 34.58 18.376 34.184 18.144 33.88C17.912 33.568 17.604 33.308 17.22 33.1C16.844 32.892 16.412 32.716 15.924 32.572C15.436 32.428 14.94 32.276 14.436 32.116C13.932 31.948 13.436 31.756 12.948 31.54C12.46 31.316 12.024 31.028 11.64 30.676C11.264 30.316 10.96 29.876 10.728 29.356C10.496 28.828 10.38 28.172 10.38 27.388C10.38 26.764 10.5 26.16 10.74 25.576C10.988 24.992 11.344 24.476 11.808 24.028C12.28 23.572 12.86 23.208 13.548 22.936C14.236 22.664 15.02 22.528 15.9 22.528C16.892 22.528 17.8 22.684 18.624 22.996C19.456 23.308 20.172 23.752 20.772 24.328L20.088 25.672ZM29.5296 31.528C30.1536 31.528 30.7016 31.448 31.1736 31.288C31.6536 31.128 32.0496 30.904 32.3616 30.616C32.6816 30.32 32.9216 29.964 33.0816 29.548C33.2416 29.132 33.3216 28.668 33.3216 28.156C33.3216 27.652 33.2416 27.2 33.0816 26.8C32.9296 26.4 32.6976 26.06 32.3856 25.78C32.0736 25.5 31.6776 25.288 31.1976 25.144C30.7256 24.992 30.1696 24.916 29.5296 24.916H26.9616V31.528H29.5296ZM29.5296 22.72C30.6576 22.72 31.6336 22.852 32.4576 23.116C33.2896 23.38 33.9736 23.752 34.5096 24.232C35.0536 24.704 35.4576 25.276 35.7216 25.948C35.9856 26.612 36.1176 27.348 36.1176 28.156C36.1176 28.98 35.9776 29.736 35.6976 30.424C35.4176 31.104 35.0016 31.692 34.4496 32.188C33.8976 32.676 33.2096 33.06 32.3856 33.34C31.5696 33.612 30.6176 33.748 29.5296 33.748H26.9616V40H24.1536V22.72H29.5296ZM49.59 37.732L49.578 40H38.802V22.72H49.578V24.988H41.622V30.196H47.982V32.392H41.622V37.732H49.59Z" fill="#B6FF3E"/>
</svg>
