<svg width="60" height="60" viewBox="0 0 60 60" fill="none" xmlns="http://www.w3.org/2000/svg">
<rect width="60" height="60" fill="#898989"/>
<path d="M29.068 31C29.708 31 30.268 30.924 30.748 30.772C31.228 30.612 31.628 30.392 31.948 30.112C32.268 29.832 32.508 29.5 32.668 29.116C32.828 28.724 32.908 28.292 32.908 27.82C32.908 26.876 32.596 26.156 31.972 25.66C31.348 25.164 30.404 24.916 29.14 24.916H26.86V31H29.068ZM37.204 40H34.696C34.2 40 33.84 39.808 33.616 39.424L29.584 33.604C29.448 33.404 29.3 33.26 29.14 33.172C28.98 33.084 28.74 33.04 28.42 33.04H26.86V40H24.052V22.72H29.14C30.276 22.72 31.252 22.836 32.068 23.068C32.892 23.3 33.568 23.632 34.096 24.064C34.624 24.488 35.012 25 35.26 25.6C35.516 26.2 35.644 26.868 35.644 27.604C35.644 28.204 35.552 28.764 35.368 29.284C35.192 29.804 34.932 30.276 34.588 30.7C34.252 31.124 33.836 31.492 33.34 31.804C32.844 32.116 32.28 32.36 31.648 32.536C31.992 32.744 32.288 33.036 32.536 33.412L37.204 40Z" fill="#2B2B2B"/>
</svg>
