<svg width="60" height="60" viewBox="0 0 60 60" fill="none" xmlns="http://www.w3.org/2000/svg">
<rect width="60" height="60" fill="#898989"/>
<path d="M18.992 25.492C18.92 25.612 18.84 25.704 18.752 25.768C18.672 25.824 18.572 25.852 18.452 25.852C18.316 25.852 18.156 25.784 17.972 25.648C17.788 25.512 17.556 25.364 17.276 25.204C17.004 25.036 16.672 24.884 16.28 24.748C15.896 24.612 15.428 24.544 14.876 24.544C14.356 24.544 13.896 24.616 13.496 24.76C13.104 24.896 12.772 25.084 12.5 25.324C12.236 25.564 12.036 25.848 11.9 26.176C11.764 26.496 11.696 26.844 11.696 27.22C11.696 27.7 11.812 28.1 12.044 28.42C12.284 28.732 12.596 29 12.98 29.224C13.372 29.448 13.812 29.644 14.3 29.812C14.796 29.972 15.3 30.14 15.812 30.316C16.332 30.492 16.836 30.692 17.324 30.916C17.82 31.132 18.26 31.408 18.644 31.744C19.036 32.08 19.348 32.492 19.58 32.98C19.82 33.468 19.94 34.068 19.94 34.78C19.94 35.532 19.812 36.24 19.556 36.904C19.3 37.56 18.924 38.132 18.428 38.62C17.94 39.108 17.336 39.492 16.616 39.772C15.904 40.052 15.092 40.192 14.18 40.192C13.06 40.192 12.044 39.992 11.132 39.592C10.22 39.184 9.44 38.636 8.792 37.948L9.464 36.844C9.528 36.756 9.604 36.684 9.692 36.628C9.788 36.564 9.892 36.532 10.004 36.532C10.108 36.532 10.224 36.576 10.352 36.664C10.488 36.744 10.64 36.848 10.808 36.976C10.976 37.104 11.168 37.244 11.384 37.396C11.6 37.548 11.844 37.688 12.116 37.816C12.396 37.944 12.712 38.052 13.064 38.14C13.416 38.22 13.812 38.26 14.252 38.26C14.804 38.26 15.296 38.184 15.728 38.032C16.16 37.88 16.524 37.668 16.82 37.396C17.124 37.116 17.356 36.784 17.516 36.4C17.676 36.016 17.756 35.588 17.756 35.116C17.756 34.596 17.636 34.172 17.396 33.844C17.164 33.508 16.856 33.228 16.472 33.004C16.088 32.78 15.648 32.592 15.152 32.44C14.656 32.28 14.152 32.12 13.64 31.96C13.128 31.792 12.624 31.6 12.128 31.384C11.632 31.168 11.192 30.888 10.808 30.544C10.424 30.2 10.112 29.772 9.872 29.26C9.64 28.74 9.524 28.1 9.524 27.34C9.524 26.732 9.64 26.144 9.872 25.576C10.112 25.008 10.456 24.504 10.904 24.064C11.36 23.624 11.916 23.272 12.572 23.008C13.236 22.744 13.996 22.612 14.852 22.612C15.812 22.612 16.684 22.764 17.468 23.068C18.26 23.372 18.956 23.812 19.556 24.388L18.992 25.492ZM28.3033 31.72C28.9673 31.72 29.5513 31.632 30.0553 31.456C30.5673 31.28 30.9953 31.036 31.3393 30.724C31.6913 30.404 31.9553 30.024 32.1313 29.584C32.3073 29.144 32.3953 28.66 32.3953 28.132C32.3953 27.036 32.0553 26.18 31.3753 25.564C30.7033 24.948 29.6793 24.64 28.3033 24.64H25.5433V31.72H28.3033ZM28.3033 22.804C29.3913 22.804 30.3353 22.932 31.1353 23.188C31.9433 23.436 32.6113 23.792 33.1393 24.256C33.6673 24.72 34.0593 25.28 34.3152 25.936C34.5793 26.592 34.7113 27.324 34.7113 28.132C34.7113 28.932 34.5713 29.664 34.2913 30.328C34.0113 30.992 33.5993 31.564 33.0553 32.044C32.5193 32.524 31.8513 32.9 31.0513 33.172C30.2593 33.436 29.3433 33.568 28.3033 33.568H25.5433V40H23.2273V22.804H28.3033ZM39.9573 30.34H40.8333C41.1373 30.34 41.3813 30.304 41.5653 30.232C41.7493 30.152 41.9173 30.02 42.0693 29.836L47.7933 23.356C47.9533 23.148 48.1213 23.004 48.2973 22.924C48.4733 22.844 48.6893 22.804 48.9453 22.804H50.9133L44.3613 30.208C44.2013 30.4 44.0453 30.56 43.8933 30.688C43.7493 30.808 43.5933 30.908 43.4253 30.988C43.6413 31.06 43.8373 31.168 44.0133 31.312C44.1893 31.448 44.3613 31.628 44.5293 31.852L51.3693 40H49.3533C49.2013 40 49.0693 39.992 48.9573 39.976C48.8533 39.952 48.7613 39.92 48.6813 39.88C48.6013 39.832 48.5293 39.78 48.4653 39.724C48.4093 39.66 48.3533 39.588 48.2973 39.508L42.3693 32.68C42.2093 32.48 42.0373 32.34 41.8533 32.26C41.6693 32.172 41.3893 32.128 41.0133 32.128H39.9573V40H37.6413V22.804H39.9573V30.34Z" fill="white"/>
</svg>
