<svg width="60" height="60" viewBox="0 0 60 60" fill="none" xmlns="http://www.w3.org/2000/svg">
<rect width="60" height="60" fill="#898989"/>
<path d="M19.088 38.672C19 38.816 18.908 38.924 18.812 38.996C18.716 39.06 18.596 39.092 18.452 39.092C18.3 39.092 18.128 39.028 17.936 38.9C17.752 38.772 17.52 38.632 17.24 38.48C16.968 38.32 16.644 38.176 16.268 38.048C15.892 37.912 15.444 37.844 14.924 37.844C14.444 37.844 14.02 37.904 13.652 38.024C13.292 38.144 12.988 38.312 12.74 38.528C12.492 38.744 12.304 39 12.176 39.296C12.056 39.584 11.996 39.9 11.996 40.244C11.996 40.684 12.112 41.052 12.344 41.348C12.576 41.636 12.88 41.884 13.256 42.092C13.64 42.3 14.076 42.484 14.564 42.644C15.052 42.796 15.548 42.96 16.052 43.136C16.564 43.312 17.064 43.512 17.552 43.736C18.04 43.96 18.472 44.244 18.848 44.588C19.232 44.932 19.54 45.352 19.772 45.848C20.004 46.344 20.12 46.948 20.12 47.66C20.12 48.428 19.988 49.148 19.724 49.82C19.46 50.492 19.076 51.08 18.572 51.584C18.076 52.08 17.46 52.472 16.724 52.76C15.996 53.048 15.164 53.192 14.228 53.192C13.676 53.192 13.136 53.136 12.608 53.024C12.088 52.92 11.588 52.772 11.108 52.58C10.636 52.38 10.192 52.14 9.776 51.86C9.36 51.58 8.988 51.268 8.66 50.924L9.476 49.58C9.548 49.468 9.64 49.38 9.752 49.316C9.864 49.252 9.988 49.22 10.124 49.22C10.308 49.22 10.512 49.308 10.736 49.484C10.96 49.652 11.228 49.84 11.54 50.048C11.86 50.248 12.244 50.436 12.692 50.612C13.14 50.78 13.676 50.864 14.3 50.864C15.316 50.864 16.1 50.616 16.652 50.12C17.212 49.624 17.492 48.94 17.492 48.068C17.492 47.58 17.376 47.184 17.144 46.88C16.912 46.568 16.604 46.308 16.22 46.1C15.844 45.892 15.412 45.716 14.924 45.572C14.436 45.428 13.94 45.276 13.436 45.116C12.932 44.948 12.436 44.756 11.948 44.54C11.46 44.316 11.024 44.028 10.64 43.676C10.264 43.316 9.96 42.876 9.728 42.356C9.496 41.828 9.38 41.172 9.38 40.388C9.38 39.764 9.5 39.16 9.74 38.576C9.988 37.992 10.344 37.476 10.808 37.028C11.28 36.572 11.86 36.208 12.548 35.936C13.236 35.664 14.02 35.528 14.9 35.528C15.892 35.528 16.8 35.684 17.624 35.996C18.456 36.308 19.172 36.752 19.772 37.328L19.088 38.672ZM28.5296 44.528C29.1536 44.528 29.7016 44.448 30.1736 44.288C30.6536 44.128 31.0496 43.904 31.3616 43.616C31.6816 43.32 31.9216 42.964 32.0816 42.548C32.2416 42.132 32.3216 41.668 32.3216 41.156C32.3216 40.652 32.2416 40.2 32.0816 39.8C31.9296 39.4 31.6976 39.06 31.3856 38.78C31.0736 38.5 30.6776 38.288 30.1976 38.144C29.7256 37.992 29.1696 37.916 28.5296 37.916H25.9616V44.528H28.5296ZM28.5296 35.72C29.6576 35.72 30.6336 35.852 31.4576 36.116C32.2896 36.38 32.9736 36.752 33.5096 37.232C34.0536 37.704 34.4576 38.276 34.7216 38.948C34.9856 39.612 35.1176 40.348 35.1176 41.156C35.1176 41.98 34.9776 42.736 34.6976 43.424C34.4176 44.104 34.0016 44.692 33.4496 45.188C32.8976 45.676 32.2096 46.06 31.3856 46.34C30.5696 46.612 29.6176 46.748 28.5296 46.748H25.9616V53H23.1536V35.72H28.5296ZM40.61 43.112H41.414C41.718 43.112 41.966 43.072 42.158 42.992C42.35 42.904 42.522 42.768 42.674 42.584L47.906 36.344C48.09 36.112 48.278 35.952 48.47 35.864C48.67 35.768 48.918 35.72 49.214 35.72H51.614L45.434 43.016C45.266 43.224 45.102 43.4 44.942 43.544C44.79 43.68 44.622 43.792 44.438 43.88C44.678 43.968 44.894 44.092 45.086 44.252C45.278 44.404 45.466 44.608 45.65 44.864L52.058 53H49.61C49.434 53 49.282 52.988 49.154 52.964C49.034 52.94 48.926 52.904 48.83 52.856C48.742 52.808 48.662 52.748 48.59 52.676C48.526 52.604 48.466 52.524 48.41 52.436L43.01 45.836C42.93 45.732 42.85 45.644 42.77 45.572C42.69 45.5 42.594 45.44 42.482 45.392C42.378 45.344 42.258 45.312 42.122 45.296C41.986 45.272 41.826 45.26 41.642 45.26H40.61V53H37.802V35.72H40.61V43.112Z" fill="#F2E147"/>
<path d="M29.068 15C29.708 15 30.268 14.924 30.748 14.772C31.228 14.612 31.628 14.392 31.948 14.112C32.268 13.832 32.508 13.5 32.668 13.116C32.828 12.724 32.908 12.292 32.908 11.82C32.908 10.876 32.596 10.156 31.972 9.66C31.348 9.164 30.404 8.916 29.14 8.916H26.86V15H29.068ZM37.204 24H34.696C34.2 24 33.84 23.808 33.616 23.424L29.584 17.604C29.448 17.404 29.3 17.26 29.14 17.172C28.98 17.084 28.74 17.04 28.42 17.04H26.86V24H24.052V6.72H29.14C30.276 6.72 31.252 6.836 32.068 7.068C32.892 7.3 33.568 7.632 34.096 8.064C34.624 8.488 35.012 9 35.26 9.6C35.516 10.2 35.644 10.868 35.644 11.604C35.644 12.204 35.552 12.764 35.368 13.284C35.192 13.804 34.932 14.276 34.588 14.7C34.252 15.124 33.836 15.492 33.34 15.804C32.844 16.116 32.28 16.36 31.648 16.536C31.992 16.744 32.288 17.036 32.536 17.412L37.204 24Z" fill="#2B2B2B"/>
</svg>
