<svg width="64" height="64" viewBox="0 0 64 64" fill="none" xmlns="http://www.w3.org/2000/svg">
<rect width="64" height="64" fill="#898989"/>
<path fill-rule="evenodd" clip-rule="evenodd" d="M23.5571 24.571C23.5571 21.906 24.5611 20.0553 25.984 18.8523C27.4412 17.6202 29.442 16.9838 31.5119 17.0003C33.5826 17.0168 35.6013 17.6863 37.0744 18.9083C38.5148 20.1034 39.4905 21.8673 39.4905 24.2699V31.0524H23.5571V24.571ZM20.5571 31.3205V24.571C20.5571 21.0634 21.9198 18.36 24.047 16.5614C26.1398 14.7919 28.8723 13.9792 31.5357 14.0004C34.1984 14.0216 36.913 14.8764 38.9899 16.5995C41.0994 18.3496 42.4905 20.9516 42.4905 24.2699V31.3205C43.9866 31.8994 45.0476 33.352 45.0476 35.0524V45.9857C45.0476 48.1948 43.2568 49.9857 41.0476 49.9857H22C19.7909 49.9857 18 48.1948 18 45.9857V35.0524C18 33.352 19.061 31.8994 20.5571 31.3205Z" fill="#C70000"/>
<path d="M33.2143 39.1667C33.2143 40.1003 32.4574 40.8571 31.5238 40.8571C30.5902 40.8571 29.8333 40.1003 29.8333 39.1667C29.8333 38.233 30.5902 37.4762 31.5238 37.4762C32.4574 37.4762 33.2143 38.233 33.2143 39.1667Z" fill="#898989"/>
<path d="M30.6786 43.3929V40.0119C30.6786 39.5451 31.057 39.1667 31.5238 39.1667C31.9906 39.1667 32.369 39.5451 32.369 40.0119V43.3929C32.369 43.8597 31.9906 44.2381 31.5238 44.2381C31.057 44.2381 30.6786 43.8597 30.6786 43.3929Z" fill="#898989"/>
</svg>
