<svg width="60" height="60" viewBox="0 0 60 60" fill="none" xmlns="http://www.w3.org/2000/svg">
<rect width="60" height="60" fill="#898989"/>
<path d="M12 31L48 31" stroke="white" stroke-width="2"/>
<path d="M20.088 9.672C20 9.816 19.908 9.924 19.812 9.996C19.716 10.06 19.596 10.092 19.452 10.092C19.3 10.092 19.128 10.028 18.936 9.9C18.752 9.772 18.52 9.632 18.24 9.48C17.968 9.32 17.644 9.176 17.268 9.048C16.892 8.912 16.444 8.844 15.924 8.844C15.444 8.844 15.02 8.904 14.652 9.024C14.292 9.144 13.988 9.312 13.74 9.528C13.492 9.744 13.304 10 13.176 10.296C13.056 10.584 12.996 10.9 12.996 11.244C12.996 11.684 13.112 12.052 13.344 12.348C13.576 12.636 13.88 12.884 14.256 13.092C14.64 13.3 15.076 13.484 15.564 13.644C16.052 13.796 16.548 13.96 17.052 14.136C17.564 14.312 18.064 14.512 18.552 14.736C19.04 14.96 19.472 15.244 19.848 15.588C20.232 15.932 20.54 16.352 20.772 16.848C21.004 17.344 21.12 17.948 21.12 18.66C21.12 19.428 20.988 20.148 20.724 20.82C20.46 21.492 20.076 22.08 19.572 22.584C19.076 23.08 18.46 23.472 17.724 23.76C16.996 24.048 16.164 24.192 15.228 24.192C14.676 24.192 14.136 24.136 13.608 24.024C13.088 23.92 12.588 23.772 12.108 23.58C11.636 23.38 11.192 23.14 10.776 22.86C10.36 22.58 9.988 22.268 9.66 21.924L10.476 20.58C10.548 20.468 10.64 20.38 10.752 20.316C10.864 20.252 10.988 20.22 11.124 20.22C11.308 20.22 11.512 20.308 11.736 20.484C11.96 20.652 12.228 20.84 12.54 21.048C12.86 21.248 13.244 21.436 13.692 21.612C14.14 21.78 14.676 21.864 15.3 21.864C16.316 21.864 17.1 21.616 17.652 21.12C18.212 20.624 18.492 19.94 18.492 19.068C18.492 18.58 18.376 18.184 18.144 17.88C17.912 17.568 17.604 17.308 17.22 17.1C16.844 16.892 16.412 16.716 15.924 16.572C15.436 16.428 14.94 16.276 14.436 16.116C13.932 15.948 13.436 15.756 12.948 15.54C12.46 15.316 12.024 15.028 11.64 14.676C11.264 14.316 10.96 13.876 10.728 13.356C10.496 12.828 10.38 12.172 10.38 11.388C10.38 10.764 10.5 10.16 10.74 9.576C10.988 8.992 11.344 8.476 11.808 8.028C12.28 7.572 12.86 7.208 13.548 6.936C14.236 6.664 15.02 6.528 15.9 6.528C16.892 6.528 17.8 6.684 18.624 6.996C19.456 7.308 20.172 7.752 20.772 8.328L20.088 9.672ZM36.1536 20.148C36.3056 20.148 36.4376 20.208 36.5496 20.328L37.6656 21.54C36.9616 22.388 36.0976 23.044 35.0736 23.508C34.0496 23.964 32.8256 24.192 31.4016 24.192C30.1376 24.192 28.9936 23.976 27.9696 23.544C26.9536 23.104 26.0856 22.496 25.3656 21.72C24.6456 20.936 24.0896 20.004 23.6976 18.924C23.3136 17.844 23.1216 16.656 23.1216 15.36C23.1216 14.064 23.3256 12.876 23.7336 11.796C24.1496 10.708 24.7296 9.776 25.4736 9C26.2256 8.216 27.1216 7.608 28.1616 7.176C29.2096 6.744 30.3616 6.528 31.6176 6.528C32.8656 6.528 33.9656 6.732 34.9176 7.14C35.8776 7.54 36.7096 8.076 37.4136 8.748L36.4896 10.056C36.4256 10.144 36.3496 10.22 36.2616 10.284C36.1736 10.348 36.0536 10.38 35.9016 10.38C35.7416 10.38 35.5576 10.308 35.3496 10.164C35.1496 10.012 34.8896 9.848 34.5696 9.672C34.2576 9.488 33.8616 9.324 33.3816 9.18C32.9096 9.028 32.3176 8.952 31.6056 8.952C30.7816 8.952 30.0256 9.096 29.3376 9.384C28.6496 9.672 28.0576 10.092 27.5616 10.644C27.0656 11.196 26.6776 11.868 26.3976 12.66C26.1256 13.452 25.9896 14.352 25.9896 15.36C25.9896 16.376 26.1336 17.284 26.4216 18.084C26.7096 18.876 27.1056 19.548 27.6096 20.1C28.1136 20.644 28.7056 21.06 29.3856 21.348C30.0656 21.636 30.7976 21.78 31.5816 21.78C32.0616 21.78 32.4896 21.756 32.8656 21.708C33.2496 21.652 33.6016 21.568 33.9216 21.456C34.2416 21.336 34.5416 21.188 34.8216 21.012C35.1096 20.836 35.3936 20.62 35.6736 20.364C35.8336 20.22 35.9936 20.148 36.1536 20.148ZM49.1271 9.672C49.0391 9.816 48.9471 9.924 48.8511 9.996C48.7551 10.06 48.6351 10.092 48.4911 10.092C48.3391 10.092 48.1671 10.028 47.9751 9.9C47.7911 9.772 47.5591 9.632 47.2791 9.48C47.0071 9.32 46.6831 9.176 46.3071 9.048C45.9311 8.912 45.4831 8.844 44.9631 8.844C44.4831 8.844 44.0591 8.904 43.6911 9.024C43.3311 9.144 43.0271 9.312 42.7791 9.528C42.5311 9.744 42.3431 10 42.2151 10.296C42.0951 10.584 42.0351 10.9 42.0351 11.244C42.0351 11.684 42.1511 12.052 42.3831 12.348C42.6151 12.636 42.9191 12.884 43.2951 13.092C43.6791 13.3 44.1151 13.484 44.6031 13.644C45.0911 13.796 45.5871 13.96 46.0911 14.136C46.6031 14.312 47.1031 14.512 47.5911 14.736C48.0791 14.96 48.5111 15.244 48.8871 15.588C49.2711 15.932 49.5791 16.352 49.8111 16.848C50.0431 17.344 50.1591 17.948 50.1591 18.66C50.1591 19.428 50.0271 20.148 49.7631 20.82C49.4991 21.492 49.1151 22.08 48.6111 22.584C48.1151 23.08 47.4991 23.472 46.7631 23.76C46.0351 24.048 45.2031 24.192 44.2671 24.192C43.7151 24.192 43.1751 24.136 42.6471 24.024C42.1271 23.92 41.6271 23.772 41.1471 23.58C40.6751 23.38 40.2311 23.14 39.8151 22.86C39.3991 22.58 39.0271 22.268 38.6991 21.924L39.5151 20.58C39.5871 20.468 39.6791 20.38 39.7911 20.316C39.9031 20.252 40.0271 20.22 40.1631 20.22C40.3471 20.22 40.5511 20.308 40.7751 20.484C40.9991 20.652 41.2671 20.84 41.5791 21.048C41.8991 21.248 42.2831 21.436 42.7311 21.612C43.1791 21.78 43.7151 21.864 44.3391 21.864C45.3551 21.864 46.1391 21.616 46.6911 21.12C47.2511 20.624 47.5311 19.94 47.5311 19.068C47.5311 18.58 47.4151 18.184 47.1831 17.88C46.9511 17.568 46.6431 17.308 46.2591 17.1C45.8831 16.892 45.4511 16.716 44.9631 16.572C44.4751 16.428 43.9791 16.276 43.4751 16.116C42.9711 15.948 42.4751 15.756 41.9871 15.54C41.4991 15.316 41.0631 15.028 40.6791 14.676C40.3031 14.316 39.9991 13.876 39.7671 13.356C39.5351 12.828 39.4191 12.172 39.4191 11.388C39.4191 10.764 39.5391 10.16 39.7791 9.576C40.0271 8.992 40.3831 8.476 40.8471 8.028C41.3191 7.572 41.8991 7.208 42.5871 6.936C43.2751 6.664 44.0591 6.528 44.9391 6.528C45.9311 6.528 46.8391 6.684 47.6631 6.996C48.4951 7.308 49.2111 7.752 49.8111 8.328L49.1271 9.672Z" fill="#84E1FF"/>
<path d="M19.088 40.672C19 40.816 18.908 40.924 18.812 40.996C18.716 41.06 18.596 41.092 18.452 41.092C18.3 41.092 18.128 41.028 17.936 40.9C17.752 40.772 17.52 40.632 17.24 40.48C16.968 40.32 16.644 40.176 16.268 40.048C15.892 39.912 15.444 39.844 14.924 39.844C14.444 39.844 14.02 39.904 13.652 40.024C13.292 40.144 12.988 40.312 12.74 40.528C12.492 40.744 12.304 41 12.176 41.296C12.056 41.584 11.996 41.9 11.996 42.244C11.996 42.684 12.112 43.052 12.344 43.348C12.576 43.636 12.88 43.884 13.256 44.092C13.64 44.3 14.076 44.484 14.564 44.644C15.052 44.796 15.548 44.96 16.052 45.136C16.564 45.312 17.064 45.512 17.552 45.736C18.04 45.96 18.472 46.244 18.848 46.588C19.232 46.932 19.54 47.352 19.772 47.848C20.004 48.344 20.12 48.948 20.12 49.66C20.12 50.428 19.988 51.148 19.724 51.82C19.46 52.492 19.076 53.08 18.572 53.584C18.076 54.08 17.46 54.472 16.724 54.76C15.996 55.048 15.164 55.192 14.228 55.192C13.676 55.192 13.136 55.136 12.608 55.024C12.088 54.92 11.588 54.772 11.108 54.58C10.636 54.38 10.192 54.14 9.776 53.86C9.36 53.58 8.988 53.268 8.66 52.924L9.476 51.58C9.548 51.468 9.64 51.38 9.752 51.316C9.864 51.252 9.988 51.22 10.124 51.22C10.308 51.22 10.512 51.308 10.736 51.484C10.96 51.652 11.228 51.84 11.54 52.048C11.86 52.248 12.244 52.436 12.692 52.612C13.14 52.78 13.676 52.864 14.3 52.864C15.316 52.864 16.1 52.616 16.652 52.12C17.212 51.624 17.492 50.94 17.492 50.068C17.492 49.58 17.376 49.184 17.144 48.88C16.912 48.568 16.604 48.308 16.22 48.1C15.844 47.892 15.412 47.716 14.924 47.572C14.436 47.428 13.94 47.276 13.436 47.116C12.932 46.948 12.436 46.756 11.948 46.54C11.46 46.316 11.024 46.028 10.64 45.676C10.264 45.316 9.96 44.876 9.728 44.356C9.496 43.828 9.38 43.172 9.38 42.388C9.38 41.764 9.5 41.16 9.74 40.576C9.988 39.992 10.344 39.476 10.808 39.028C11.28 38.572 11.86 38.208 12.548 37.936C13.236 37.664 14.02 37.528 14.9 37.528C15.892 37.528 16.8 37.684 17.624 37.996C18.456 38.308 19.172 38.752 19.772 39.328L19.088 40.672ZM28.5296 46.528C29.1536 46.528 29.7016 46.448 30.1736 46.288C30.6536 46.128 31.0496 45.904 31.3616 45.616C31.6816 45.32 31.9216 44.964 32.0816 44.548C32.2416 44.132 32.3216 43.668 32.3216 43.156C32.3216 42.652 32.2416 42.2 32.0816 41.8C31.9296 41.4 31.6976 41.06 31.3856 40.78C31.0736 40.5 30.6776 40.288 30.1976 40.144C29.7256 39.992 29.1696 39.916 28.5296 39.916H25.9616V46.528H28.5296ZM28.5296 37.72C29.6576 37.72 30.6336 37.852 31.4576 38.116C32.2896 38.38 32.9736 38.752 33.5096 39.232C34.0536 39.704 34.4576 40.276 34.7216 40.948C34.9856 41.612 35.1176 42.348 35.1176 43.156C35.1176 43.98 34.9776 44.736 34.6976 45.424C34.4176 46.104 34.0016 46.692 33.4496 47.188C32.8976 47.676 32.2096 48.06 31.3856 48.34C30.5696 48.612 29.6176 48.748 28.5296 48.748H25.9616V55H23.1536V37.72H28.5296ZM40.61 45.112H41.414C41.718 45.112 41.966 45.072 42.158 44.992C42.35 44.904 42.522 44.768 42.674 44.584L47.906 38.344C48.09 38.112 48.278 37.952 48.47 37.864C48.67 37.768 48.918 37.72 49.214 37.72H51.614L45.434 45.016C45.266 45.224 45.102 45.4 44.942 45.544C44.79 45.68 44.622 45.792 44.438 45.88C44.678 45.968 44.894 46.092 45.086 46.252C45.278 46.404 45.466 46.608 45.65 46.864L52.058 55H49.61C49.434 55 49.282 54.988 49.154 54.964C49.034 54.94 48.926 54.904 48.83 54.856C48.742 54.808 48.662 54.748 48.59 54.676C48.526 54.604 48.466 54.524 48.41 54.436L43.01 47.836C42.93 47.732 42.85 47.644 42.77 47.572C42.69 47.5 42.594 47.44 42.482 47.392C42.378 47.344 42.258 47.312 42.122 47.296C41.986 47.272 41.826 47.26 41.642 47.26H40.61V55H37.802V37.72H40.61V45.112Z" fill="#F2E147"/>
</svg>
