<svg width="60" height="60" viewBox="0 0 60 60" fill="none" xmlns="http://www.w3.org/2000/svg">
<rect width="60" height="60" fill="#898989"/>
<path d="M14 13.2939V10.732H27.1007V13.2939H14Z" fill="#FF0000"/>
<path d="M14.6987 12.562V11.464H26.926V12.562H14.6987Z" fill="white"/>
<ellipse cx="28.1487" cy="12.013" rx="1.92143" ry="2.01296" fill="#FF0000"/>
<ellipse cx="28.1487" cy="12.013" rx="1.22273" ry="1.28098" fill="white"/>
<rect x="16.5391" y="12.88" width="1.374" height="21.12" fill="#FF0000"/>
<rect x="16.5391" y="17.68" width="1.374" height="4.32" fill="white"/>
<rect x="16.5391" y="26.32" width="1.374" height="4.32" fill="white"/>
<path d="M45.3661 27.061H47.8101" stroke="#BFBFBF"/>
<path d="M44.0209 26.0016C42.6274 26.0518 42.1244 27.1626 42 27.7699H46.1681C46.0644 27.1207 45.4144 25.9513 44.0209 26.0016Z" fill="black"/>
<path d="M46.6734 39.2928V26.7654V26.3537H47.4312V26.7654V53.2317H46.6734V40.7589H43.8125V38.6875V38.437L44.3304 38.4286V40.2411L46.105 40.2642H46.6734V39.2928Z" fill="#BFBFBF"/>
<path d="M44.1472 39.0854C45.5407 39.0351 46.0437 37.9244 46.1681 37.3171H42C42.1037 37.9663 42.7537 39.1356 44.1472 39.0854Z" fill="black"/>
<path d="M46.1681 37.3171V28.0041V27.7683H42V37.3171H46.1681Z" fill="black"/>
<path d="M42.5179 37.3929V39.2054L47.1154 47.2195" stroke="black"/>
<rect x="46.6733" y="40.2642" width="0.75784" height="12.9675" fill="white"/>
<rect x="46.6733" y="40.2642" width="0.75784" height="2.94715" fill="#FF0000"/>
<rect x="46.6733" y="46.1585" width="0.75784" height="2.94715" fill="#FF0000"/>
<rect x="46.6733" y="52.0529" width="0.75784" height="2.94715" fill="#FF0000"/>
<ellipse cx="44.0209" cy="27.7608" rx="0.75784" ry="0.725115" fill="#212121"/>
<ellipse cx="44.0209" cy="30.057" rx="0.75784" ry="0.725115" fill="#212121"/>
<ellipse cx="44.0209" cy="32.3532" rx="0.75784" ry="0.725115" fill="#FF0000"/>
<ellipse cx="44.0209" cy="34.6494" rx="0.75784" ry="0.725115" fill="#212121"/>
<ellipse cx="44.0209" cy="36.9456" rx="0.75784" ry="0.725115" fill="#212121"/>
<path d="M14.2883 47.7888L46.4617 15.6154" stroke="white"/>
</svg>
