<svg width="60" height="60" viewBox="0 0 60 60" fill="none" xmlns="http://www.w3.org/2000/svg">
<rect width="60" height="60" fill="#898989"/>
<path d="M20.088 38.672C20 38.816 19.908 38.924 19.812 38.996C19.716 39.06 19.596 39.092 19.452 39.092C19.3 39.092 19.128 39.028 18.936 38.9C18.752 38.772 18.52 38.632 18.24 38.48C17.968 38.32 17.644 38.176 17.268 38.048C16.892 37.912 16.444 37.844 15.924 37.844C15.444 37.844 15.02 37.904 14.652 38.024C14.292 38.144 13.988 38.312 13.74 38.528C13.492 38.744 13.304 39 13.176 39.296C13.056 39.584 12.996 39.9 12.996 40.244C12.996 40.684 13.112 41.052 13.344 41.348C13.576 41.636 13.88 41.884 14.256 42.092C14.64 42.3 15.076 42.484 15.564 42.644C16.052 42.796 16.548 42.96 17.052 43.136C17.564 43.312 18.064 43.512 18.552 43.736C19.04 43.96 19.472 44.244 19.848 44.588C20.232 44.932 20.54 45.352 20.772 45.848C21.004 46.344 21.12 46.948 21.12 47.66C21.12 48.428 20.988 49.148 20.724 49.82C20.46 50.492 20.076 51.08 19.572 51.584C19.076 52.08 18.46 52.472 17.724 52.76C16.996 53.048 16.164 53.192 15.228 53.192C14.676 53.192 14.136 53.136 13.608 53.024C13.088 52.92 12.588 52.772 12.108 52.58C11.636 52.38 11.192 52.14 10.776 51.86C10.36 51.58 9.988 51.268 9.66 50.924L10.476 49.58C10.548 49.468 10.64 49.38 10.752 49.316C10.864 49.252 10.988 49.22 11.124 49.22C11.308 49.22 11.512 49.308 11.736 49.484C11.96 49.652 12.228 49.84 12.54 50.048C12.86 50.248 13.244 50.436 13.692 50.612C14.14 50.78 14.676 50.864 15.3 50.864C16.316 50.864 17.1 50.616 17.652 50.12C18.212 49.624 18.492 48.94 18.492 48.068C18.492 47.58 18.376 47.184 18.144 46.88C17.912 46.568 17.604 46.308 17.22 46.1C16.844 45.892 16.412 45.716 15.924 45.572C15.436 45.428 14.94 45.276 14.436 45.116C13.932 44.948 13.436 44.756 12.948 44.54C12.46 44.316 12.024 44.028 11.64 43.676C11.264 43.316 10.96 42.876 10.728 42.356C10.496 41.828 10.38 41.172 10.38 40.388C10.38 39.764 10.5 39.16 10.74 38.576C10.988 37.992 11.344 37.476 11.808 37.028C12.28 36.572 12.86 36.208 13.548 35.936C14.236 35.664 15.02 35.528 15.9 35.528C16.892 35.528 17.8 35.684 18.624 35.996C19.456 36.308 20.172 36.752 20.772 37.328L20.088 38.672ZM36.1536 49.148C36.3056 49.148 36.4376 49.208 36.5496 49.328L37.6656 50.54C36.9616 51.388 36.0976 52.044 35.0736 52.508C34.0496 52.964 32.8256 53.192 31.4016 53.192C30.1376 53.192 28.9936 52.976 27.9696 52.544C26.9536 52.104 26.0856 51.496 25.3656 50.72C24.6456 49.936 24.0896 49.004 23.6976 47.924C23.3136 46.844 23.1216 45.656 23.1216 44.36C23.1216 43.064 23.3256 41.876 23.7336 40.796C24.1496 39.708 24.7296 38.776 25.4736 38C26.2256 37.216 27.1216 36.608 28.1616 36.176C29.2096 35.744 30.3616 35.528 31.6176 35.528C32.8656 35.528 33.9656 35.732 34.9176 36.14C35.8776 36.54 36.7096 37.076 37.4136 37.748L36.4896 39.056C36.4256 39.144 36.3496 39.22 36.2616 39.284C36.1736 39.348 36.0536 39.38 35.9016 39.38C35.7416 39.38 35.5576 39.308 35.3496 39.164C35.1496 39.012 34.8896 38.848 34.5696 38.672C34.2576 38.488 33.8616 38.324 33.3816 38.18C32.9096 38.028 32.3176 37.952 31.6056 37.952C30.7816 37.952 30.0256 38.096 29.3376 38.384C28.6496 38.672 28.0576 39.092 27.5616 39.644C27.0656 40.196 26.6776 40.868 26.3976 41.66C26.1256 42.452 25.9896 43.352 25.9896 44.36C25.9896 45.376 26.1336 46.284 26.4216 47.084C26.7096 47.876 27.1056 48.548 27.6096 49.1C28.1136 49.644 28.7056 50.06 29.3856 50.348C30.0656 50.636 30.7976 50.78 31.5816 50.78C32.0616 50.78 32.4896 50.756 32.8656 50.708C33.2496 50.652 33.6016 50.568 33.9216 50.456C34.2416 50.336 34.5416 50.188 34.8216 50.012C35.1096 49.836 35.3936 49.62 35.6736 49.364C35.8336 49.22 35.9936 49.148 36.1536 49.148ZM49.1271 38.672C49.0391 38.816 48.9471 38.924 48.8511 38.996C48.7551 39.06 48.6351 39.092 48.4911 39.092C48.3391 39.092 48.1671 39.028 47.9751 38.9C47.7911 38.772 47.5591 38.632 47.2791 38.48C47.0071 38.32 46.6831 38.176 46.3071 38.048C45.9311 37.912 45.4831 37.844 44.9631 37.844C44.4831 37.844 44.0591 37.904 43.6911 38.024C43.3311 38.144 43.0271 38.312 42.7791 38.528C42.5311 38.744 42.3431 39 42.2151 39.296C42.0951 39.584 42.0351 39.9 42.0351 40.244C42.0351 40.684 42.1511 41.052 42.3831 41.348C42.6151 41.636 42.9191 41.884 43.2951 42.092C43.6791 42.3 44.1151 42.484 44.6031 42.644C45.0911 42.796 45.5871 42.96 46.0911 43.136C46.6031 43.312 47.1031 43.512 47.5911 43.736C48.0791 43.96 48.5111 44.244 48.8871 44.588C49.2711 44.932 49.5791 45.352 49.8111 45.848C50.0431 46.344 50.1591 46.948 50.1591 47.66C50.1591 48.428 50.0271 49.148 49.7631 49.82C49.4991 50.492 49.1151 51.08 48.6111 51.584C48.1151 52.08 47.4991 52.472 46.7631 52.76C46.0351 53.048 45.2031 53.192 44.2671 53.192C43.7151 53.192 43.1751 53.136 42.6471 53.024C42.1271 52.92 41.6271 52.772 41.1471 52.58C40.6751 52.38 40.2311 52.14 39.8151 51.86C39.3991 51.58 39.0271 51.268 38.6991 50.924L39.5151 49.58C39.5871 49.468 39.6791 49.38 39.7911 49.316C39.9031 49.252 40.0271 49.22 40.1631 49.22C40.3471 49.22 40.5511 49.308 40.7751 49.484C40.9991 49.652 41.2671 49.84 41.5791 50.048C41.8991 50.248 42.2831 50.436 42.7311 50.612C43.1791 50.78 43.7151 50.864 44.3391 50.864C45.3551 50.864 46.1391 50.616 46.6911 50.12C47.2511 49.624 47.5311 48.94 47.5311 48.068C47.5311 47.58 47.4151 47.184 47.1831 46.88C46.9511 46.568 46.6431 46.308 46.2591 46.1C45.8831 45.892 45.4511 45.716 44.9631 45.572C44.4751 45.428 43.9791 45.276 43.4751 45.116C42.9711 44.948 42.4751 44.756 41.9871 44.54C41.4991 44.316 41.0631 44.028 40.6791 43.676C40.3031 43.316 39.9991 42.876 39.7671 42.356C39.5351 41.828 39.4191 41.172 39.4191 40.388C39.4191 39.764 39.5391 39.16 39.7791 38.576C40.0271 37.992 40.3831 37.476 40.8471 37.028C41.3191 36.572 41.8991 36.208 42.5871 35.936C43.2751 35.664 44.0591 35.528 44.9391 35.528C45.9311 35.528 46.8391 35.684 47.6631 35.996C48.4951 36.308 49.2111 36.752 49.8111 37.328L49.1271 38.672Z" fill="#84E1FF"/>
<path d="M38.436 7.72V25H35.964V13.156C35.964 12.964 35.968 12.756 35.976 12.532C35.992 12.3 36.012 12.068 36.036 11.836L30.48 22.096C30.264 22.52 29.932 22.732 29.484 22.732H29.088C28.632 22.732 28.3 22.52 28.092 22.096L22.452 11.812C22.476 12.044 22.492 12.276 22.5 12.508C22.516 12.74 22.524 12.956 22.524 13.156V25H20.052V7.72H22.152C22.4 7.72 22.592 7.744 22.728 7.792C22.864 7.832 22.988 7.964 23.1 8.188L28.644 18.232C28.764 18.464 28.876 18.704 28.98 18.952C29.092 19.192 29.192 19.44 29.28 19.696C29.376 19.44 29.476 19.188 29.58 18.94C29.692 18.684 29.808 18.44 29.928 18.208L35.388 8.188C35.5 7.964 35.624 7.832 35.76 7.792C35.896 7.744 36.088 7.72 36.336 7.72H38.436Z" fill="#FFB800"/>
</svg>
