<svg width="60" height="60" viewBox="0 0 60 60" fill="none" xmlns="http://www.w3.org/2000/svg">
<rect width="60" height="60" fill="#898989"/>
<path d="M22.4588 10.119C22.4048 10.209 22.3448 10.278 22.2788 10.326C22.2188 10.368 22.1438 10.389 22.0538 10.389C21.9518 10.389 21.8318 10.338 21.6938 10.236C21.5558 10.134 21.3818 10.023 21.1718 9.903C20.9678 9.777 20.7188 9.663 20.4248 9.561C20.1368 9.459 19.7858 9.408 19.3718 9.408C18.9818 9.408 18.6368 9.462 18.3368 9.57C18.0428 9.672 17.7938 9.813 17.5898 9.993C17.3918 10.173 17.2418 10.386 17.1398 10.632C17.0378 10.872 16.9868 11.133 16.9868 11.415C16.9868 11.775 17.0738 12.075 17.2478 12.315C17.4278 12.549 17.6618 12.75 17.9498 12.918C18.2438 13.086 18.5738 13.233 18.9398 13.359C19.3118 13.479 19.6898 13.605 20.0738 13.737C20.4638 13.869 20.8418 14.019 21.2078 14.187C21.5798 14.349 21.9098 14.556 22.1978 14.808C22.4918 15.06 22.7258 15.369 22.8998 15.735C23.0798 16.101 23.1698 16.551 23.1698 17.085C23.1698 17.649 23.0738 18.18 22.8818 18.678C22.6898 19.17 22.4078 19.599 22.0358 19.965C21.6698 20.331 21.2168 20.619 20.6768 20.829C20.1428 21.039 19.5338 21.144 18.8498 21.144C18.0098 21.144 17.2478 20.994 16.5638 20.694C15.8798 20.388 15.2948 19.977 14.8088 19.461L15.3128 18.633C15.3608 18.567 15.4178 18.513 15.4838 18.471C15.5558 18.423 15.6338 18.399 15.7178 18.399C15.7958 18.399 15.8828 18.432 15.9788 18.498C16.0808 18.558 16.1948 18.636 16.3208 18.732C16.4468 18.828 16.5908 18.933 16.7528 19.047C16.9148 19.161 17.0978 19.266 17.3018 19.362C17.5118 19.458 17.7488 19.539 18.0128 19.605C18.2768 19.665 18.5738 19.695 18.9038 19.695C19.3178 19.695 19.6868 19.638 20.0108 19.524C20.3348 19.41 20.6078 19.251 20.8298 19.047C21.0578 18.837 21.2318 18.588 21.3518 18.3C21.4718 18.012 21.5318 17.691 21.5318 17.337C21.5318 16.947 21.4418 16.629 21.2618 16.383C21.0878 16.131 20.8568 15.921 20.5688 15.753C20.2808 15.585 19.9508 15.444 19.5788 15.33C19.2068 15.21 18.8288 15.09 18.4448 14.97C18.0608 14.844 17.6828 14.7 17.3108 14.538C16.9388 14.376 16.6088 14.166 16.3208 13.908C16.0328 13.65 15.7988 13.329 15.6188 12.945C15.4448 12.555 15.3578 12.075 15.3578 11.505C15.3578 11.049 15.4448 10.608 15.6188 10.182C15.7988 9.756 16.0568 9.378 16.3928 9.048C16.7348 8.718 17.1518 8.454 17.6438 8.256C18.1418 8.058 18.7118 7.959 19.3538 7.959C20.0738 7.959 20.7278 8.073 21.3158 8.301C21.9098 8.529 22.4318 8.859 22.8818 9.291L22.4588 10.119ZM34.6893 18.336C34.7853 18.336 34.8693 18.375 34.9413 18.453L35.6343 19.2C35.1063 19.812 34.4643 20.289 33.7083 20.631C32.9583 20.973 32.0493 21.144 30.9813 21.144C30.0573 21.144 29.2173 20.985 28.4613 20.667C27.7053 20.343 27.0603 19.893 26.5263 19.317C25.9923 18.735 25.5783 18.039 25.2843 17.229C24.9903 16.419 24.8433 15.528 24.8433 14.556C24.8433 13.584 24.9963 12.693 25.3023 11.883C25.6083 11.073 26.0373 10.377 26.5893 9.795C27.1473 9.213 27.8133 8.763 28.5873 8.445C29.3613 8.121 30.2163 7.959 31.1523 7.959C32.0703 7.959 32.8803 8.106 33.5823 8.4C34.2843 8.694 34.9023 9.093 35.4363 9.597L34.8603 10.398C34.8243 10.458 34.7763 10.509 34.7163 10.551C34.6623 10.587 34.5873 10.605 34.4913 10.605C34.3833 10.605 34.2513 10.548 34.0953 10.434C33.9393 10.314 33.7353 10.182 33.4833 10.038C33.2313 9.894 32.9163 9.765 32.5383 9.651C32.1603 9.531 31.6953 9.471 31.1433 9.471C30.4773 9.471 29.8683 9.588 29.3163 9.822C28.7643 10.05 28.2873 10.383 27.8853 10.821C27.4893 11.259 27.1803 11.793 26.9583 12.423C26.7363 13.053 26.6253 13.764 26.6253 14.556C26.6253 15.36 26.7393 16.077 26.9673 16.707C27.2013 17.337 27.5163 17.871 27.9123 18.309C28.3143 18.741 28.7853 19.071 29.3253 19.299C29.8713 19.527 30.4593 19.641 31.0893 19.641C31.4733 19.641 31.8183 19.62 32.1243 19.578C32.4363 19.53 32.7213 19.458 32.9793 19.362C33.2433 19.266 33.4863 19.146 33.7083 19.002C33.9363 18.852 34.1613 18.675 34.3833 18.471C34.4853 18.381 34.5873 18.336 34.6893 18.336ZM44.2557 10.119C44.2017 10.209 44.1417 10.278 44.0757 10.326C44.0157 10.368 43.9407 10.389 43.8507 10.389C43.7487 10.389 43.6287 10.338 43.4907 10.236C43.3527 10.134 43.1787 10.023 42.9687 9.903C42.7647 9.777 42.5157 9.663 42.2217 9.561C41.9337 9.459 41.5827 9.408 41.1687 9.408C40.7787 9.408 40.4337 9.462 40.1337 9.57C39.8397 9.672 39.5907 9.813 39.3867 9.993C39.1887 10.173 39.0387 10.386 38.9367 10.632C38.8347 10.872 38.7837 11.133 38.7837 11.415C38.7837 11.775 38.8707 12.075 39.0447 12.315C39.2247 12.549 39.4587 12.75 39.7467 12.918C40.0407 13.086 40.3707 13.233 40.7367 13.359C41.1087 13.479 41.4867 13.605 41.8707 13.737C42.2607 13.869 42.6387 14.019 43.0047 14.187C43.3767 14.349 43.7067 14.556 43.9947 14.808C44.2887 15.06 44.5227 15.369 44.6967 15.735C44.8767 16.101 44.9667 16.551 44.9667 17.085C44.9667 17.649 44.8707 18.18 44.6787 18.678C44.4867 19.17 44.2047 19.599 43.8327 19.965C43.4667 20.331 43.0137 20.619 42.4737 20.829C41.9397 21.039 41.3307 21.144 40.6467 21.144C39.8067 21.144 39.0447 20.994 38.3607 20.694C37.6767 20.388 37.0917 19.977 36.6057 19.461L37.1097 18.633C37.1577 18.567 37.2147 18.513 37.2807 18.471C37.3527 18.423 37.4307 18.399 37.5147 18.399C37.5927 18.399 37.6797 18.432 37.7757 18.498C37.8777 18.558 37.9917 18.636 38.1177 18.732C38.2437 18.828 38.3877 18.933 38.5497 19.047C38.7117 19.161 38.8947 19.266 39.0987 19.362C39.3087 19.458 39.5457 19.539 39.8097 19.605C40.0737 19.665 40.3707 19.695 40.7007 19.695C41.1147 19.695 41.4837 19.638 41.8077 19.524C42.1317 19.41 42.4047 19.251 42.6267 19.047C42.8547 18.837 43.0287 18.588 43.1487 18.3C43.2687 18.012 43.3287 17.691 43.3287 17.337C43.3287 16.947 43.2387 16.629 43.0587 16.383C42.8847 16.131 42.6537 15.921 42.3657 15.753C42.0777 15.585 41.7477 15.444 41.3757 15.33C41.0037 15.21 40.6257 15.09 40.2417 14.97C39.8577 14.844 39.4797 14.7 39.1077 14.538C38.7357 14.376 38.4057 14.166 38.1177 13.908C37.8297 13.65 37.5957 13.329 37.4157 12.945C37.2417 12.555 37.1547 12.075 37.1547 11.505C37.1547 11.049 37.2417 10.608 37.4157 10.182C37.5957 9.756 37.8537 9.378 38.1897 9.048C38.5317 8.718 38.9487 8.454 39.4407 8.256C39.9387 8.058 40.5087 7.959 41.1507 7.959C41.8707 7.959 42.5247 8.073 43.1127 8.301C43.7067 8.529 44.2287 8.859 44.6787 9.291L44.2557 10.119ZM21.993 42.119C21.939 42.209 21.879 42.278 21.813 42.326C21.753 42.368 21.678 42.389 21.588 42.389C21.486 42.389 21.366 42.338 21.228 42.236C21.09 42.134 20.916 42.023 20.706 41.903C20.502 41.777 20.253 41.663 19.959 41.561C19.671 41.459 19.32 41.408 18.906 41.408C18.516 41.408 18.171 41.462 17.871 41.57C17.577 41.672 17.328 41.813 17.124 41.993C16.926 42.173 16.776 42.386 16.674 42.632C16.572 42.872 16.521 43.133 16.521 43.415C16.521 43.775 16.608 44.075 16.782 44.315C16.962 44.549 17.196 44.75 17.484 44.918C17.778 45.086 18.108 45.233 18.474 45.359C18.846 45.479 19.224 45.605 19.608 45.737C19.998 45.869 20.376 46.019 20.742 46.187C21.114 46.349 21.444 46.556 21.732 46.808C22.026 47.06 22.26 47.369 22.434 47.735C22.614 48.101 22.704 48.551 22.704 49.085C22.704 49.649 22.608 50.18 22.416 50.678C22.224 51.17 21.942 51.599 21.57 51.965C21.204 52.331 20.751 52.619 20.211 52.829C19.677 53.039 19.068 53.144 18.384 53.144C17.544 53.144 16.782 52.994 16.098 52.694C15.414 52.388 14.829 51.977 14.343 51.461L14.847 50.633C14.895 50.567 14.952 50.513 15.018 50.471C15.09 50.423 15.168 50.399 15.252 50.399C15.33 50.399 15.417 50.432 15.513 50.498C15.615 50.558 15.729 50.636 15.855 50.732C15.981 50.828 16.125 50.933 16.287 51.047C16.449 51.161 16.632 51.266 16.836 51.362C17.046 51.458 17.283 51.539 17.547 51.605C17.811 51.665 18.108 51.695 18.438 51.695C18.852 51.695 19.221 51.638 19.545 51.524C19.869 51.41 20.142 51.251 20.364 51.047C20.592 50.837 20.766 50.588 20.886 50.3C21.006 50.012 21.066 49.691 21.066 49.337C21.066 48.947 20.976 48.629 20.796 48.383C20.622 48.131 20.391 47.921 20.103 47.753C19.815 47.585 19.485 47.444 19.113 47.33C18.741 47.21 18.363 47.09 17.979 46.97C17.595 46.844 17.217 46.7 16.845 46.538C16.473 46.376 16.143 46.166 15.855 45.908C15.567 45.65 15.333 45.329 15.153 44.945C14.979 44.555 14.892 44.075 14.892 43.505C14.892 43.049 14.979 42.608 15.153 42.182C15.333 41.756 15.591 41.378 15.927 41.048C16.269 40.718 16.686 40.454 17.178 40.256C17.676 40.058 18.246 39.959 18.888 39.959C19.608 39.959 20.262 40.073 20.85 40.301C21.444 40.529 21.966 40.859 22.416 41.291L21.993 42.119ZM28.9765 46.79C29.4745 46.79 29.9125 46.724 30.2905 46.592C30.6745 46.46 30.9955 46.277 31.2535 46.043C31.5175 45.803 31.7155 45.518 31.8475 45.188C31.9795 44.858 32.0455 44.495 32.0455 44.099C32.0455 43.277 31.7905 42.635 31.2805 42.173C30.7765 41.711 30.0085 41.48 28.9765 41.48H26.9065V46.79H28.9765ZM28.9765 40.103C29.7925 40.103 30.5005 40.199 31.1005 40.391C31.7065 40.577 32.2075 40.844 32.6035 41.192C32.9995 41.54 33.2935 41.96 33.4855 42.452C33.6835 42.944 33.7825 43.493 33.7825 44.099C33.7825 44.699 33.6775 45.248 33.4675 45.746C33.2575 46.244 32.9485 46.673 32.5405 47.033C32.1385 47.393 31.6375 47.675 31.0375 47.879C30.4435 48.077 29.7565 48.176 28.9765 48.176H26.9065V53H25.1695V40.103H28.9765ZM37.717 45.755H38.374C38.602 45.755 38.785 45.728 38.923 45.674C39.061 45.614 39.187 45.515 39.301 45.377L43.594 40.517C43.714 40.361 43.84 40.253 43.972 40.193C44.104 40.133 44.266 40.103 44.458 40.103H45.934L41.02 45.656C40.9 45.8 40.783 45.92 40.669 46.016C40.561 46.106 40.444 46.181 40.318 46.241C40.48 46.295 40.627 46.376 40.759 46.484C40.891 46.586 41.02 46.721 41.146 46.889L46.276 53H44.764C44.65 53 44.551 52.994 44.467 52.982C44.389 52.964 44.32 52.94 44.26 52.91C44.2 52.874 44.146 52.835 44.098 52.793C44.056 52.745 44.014 52.691 43.972 52.631L39.526 47.51C39.406 47.36 39.277 47.255 39.139 47.195C39.001 47.129 38.791 47.096 38.509 47.096H37.717V53H35.98V40.103H37.717V45.755Z" fill="white"/>
<path d="M7 31H52.5" stroke="white"/>
</svg>
