<svg width="60" height="60" viewBox="0 0 60 60" fill="none" xmlns="http://www.w3.org/2000/svg">
<rect width="60" height="60" fill="#898989"/>
<path d="M19.992 25.492C19.92 25.612 19.84 25.704 19.752 25.768C19.672 25.824 19.572 25.852 19.452 25.852C19.316 25.852 19.156 25.784 18.972 25.648C18.788 25.512 18.556 25.364 18.276 25.204C18.004 25.036 17.672 24.884 17.28 24.748C16.896 24.612 16.428 24.544 15.876 24.544C15.356 24.544 14.896 24.616 14.496 24.76C14.104 24.896 13.772 25.084 13.5 25.324C13.236 25.564 13.036 25.848 12.9 26.176C12.764 26.496 12.696 26.844 12.696 27.22C12.696 27.7 12.812 28.1 13.044 28.42C13.284 28.732 13.596 29 13.98 29.224C14.372 29.448 14.812 29.644 15.3 29.812C15.796 29.972 16.3 30.14 16.812 30.316C17.332 30.492 17.836 30.692 18.324 30.916C18.82 31.132 19.26 31.408 19.644 31.744C20.036 32.08 20.348 32.492 20.58 32.98C20.82 33.468 20.94 34.068 20.94 34.78C20.94 35.532 20.812 36.24 20.556 36.904C20.3 37.56 19.924 38.132 19.428 38.62C18.94 39.108 18.336 39.492 17.616 39.772C16.904 40.052 16.092 40.192 15.18 40.192C14.06 40.192 13.044 39.992 12.132 39.592C11.22 39.184 10.44 38.636 9.792 37.948L10.464 36.844C10.528 36.756 10.604 36.684 10.692 36.628C10.788 36.564 10.892 36.532 11.004 36.532C11.108 36.532 11.224 36.576 11.352 36.664C11.488 36.744 11.64 36.848 11.808 36.976C11.976 37.104 12.168 37.244 12.384 37.396C12.6 37.548 12.844 37.688 13.116 37.816C13.396 37.944 13.712 38.052 14.064 38.14C14.416 38.22 14.812 38.26 15.252 38.26C15.804 38.26 16.296 38.184 16.728 38.032C17.16 37.88 17.524 37.668 17.82 37.396C18.124 37.116 18.356 36.784 18.516 36.4C18.676 36.016 18.756 35.588 18.756 35.116C18.756 34.596 18.636 34.172 18.396 33.844C18.164 33.508 17.856 33.228 17.472 33.004C17.088 32.78 16.648 32.592 16.152 32.44C15.656 32.28 15.152 32.12 14.64 31.96C14.128 31.792 13.624 31.6 13.128 31.384C12.632 31.168 12.192 30.888 11.808 30.544C11.424 30.2 11.112 29.772 10.872 29.26C10.64 28.74 10.524 28.1 10.524 27.34C10.524 26.732 10.64 26.144 10.872 25.576C11.112 25.008 11.456 24.504 11.904 24.064C12.36 23.624 12.916 23.272 13.572 23.008C14.236 22.744 14.996 22.612 15.852 22.612C16.812 22.612 17.684 22.764 18.468 23.068C19.26 23.372 19.956 23.812 20.556 24.388L19.992 25.492ZM36.2993 36.448C36.4273 36.448 36.5393 36.5 36.6353 36.604L37.5593 37.6C36.8553 38.416 35.9993 39.052 34.9913 39.508C33.9913 39.964 32.7793 40.192 31.3553 40.192C30.1233 40.192 29.0033 39.98 27.9953 39.556C26.9873 39.124 26.1273 38.524 25.4153 37.756C24.7033 36.98 24.1513 36.052 23.7593 34.972C23.3673 33.892 23.1713 32.704 23.1713 31.408C23.1713 30.112 23.3753 28.924 23.7833 27.844C24.1913 26.764 24.7633 25.836 25.4993 25.06C26.2433 24.284 27.1313 23.684 28.1633 23.26C29.1953 22.828 30.3353 22.612 31.5833 22.612C32.8073 22.612 33.8873 22.808 34.8233 23.2C35.7593 23.592 36.5833 24.124 37.2953 24.796L36.5273 25.864C36.4793 25.944 36.4153 26.012 36.3353 26.068C36.2633 26.116 36.1633 26.14 36.0353 26.14C35.8913 26.14 35.7153 26.064 35.5073 25.912C35.2993 25.752 35.0273 25.576 34.6913 25.384C34.3553 25.192 33.9353 25.02 33.4313 24.868C32.9273 24.708 32.3073 24.628 31.5713 24.628C30.6833 24.628 29.8713 24.784 29.1353 25.096C28.3993 25.4 27.7633 25.844 27.2273 26.428C26.6993 27.012 26.2873 27.724 25.9913 28.564C25.6953 29.404 25.5473 30.352 25.5473 31.408C25.5473 32.48 25.6993 33.436 26.0033 34.276C26.3153 35.116 26.7353 35.828 27.2633 36.412C27.7993 36.988 28.4273 37.428 29.1473 37.732C29.8753 38.036 30.6593 38.188 31.4993 38.188C32.0113 38.188 32.4713 38.16 32.8793 38.104C33.2953 38.04 33.6753 37.944 34.0193 37.816C34.3713 37.688 34.6953 37.528 34.9913 37.336C35.2953 37.136 35.5953 36.9 35.8913 36.628C36.0273 36.508 36.1633 36.448 36.2993 36.448ZM49.0545 25.492C48.9825 25.612 48.9025 25.704 48.8145 25.768C48.7345 25.824 48.6345 25.852 48.5145 25.852C48.3785 25.852 48.2185 25.784 48.0345 25.648C47.8505 25.512 47.6185 25.364 47.3385 25.204C47.0665 25.036 46.7345 24.884 46.3425 24.748C45.9585 24.612 45.4905 24.544 44.9385 24.544C44.4185 24.544 43.9585 24.616 43.5585 24.76C43.1665 24.896 42.8345 25.084 42.5625 25.324C42.2985 25.564 42.0985 25.848 41.9625 26.176C41.8265 26.496 41.7585 26.844 41.7585 27.22C41.7585 27.7 41.8745 28.1 42.1065 28.42C42.3465 28.732 42.6585 29 43.0425 29.224C43.4345 29.448 43.8745 29.644 44.3625 29.812C44.8585 29.972 45.3625 30.14 45.8745 30.316C46.3945 30.492 46.8985 30.692 47.3865 30.916C47.8825 31.132 48.3225 31.408 48.7065 31.744C49.0985 32.08 49.4105 32.492 49.6425 32.98C49.8825 33.468 50.0025 34.068 50.0025 34.78C50.0025 35.532 49.8745 36.24 49.6185 36.904C49.3625 37.56 48.9865 38.132 48.4905 38.62C48.0025 39.108 47.3985 39.492 46.6785 39.772C45.9665 40.052 45.1545 40.192 44.2425 40.192C43.1225 40.192 42.1065 39.992 41.1945 39.592C40.2825 39.184 39.5025 38.636 38.8545 37.948L39.5265 36.844C39.5905 36.756 39.6665 36.684 39.7545 36.628C39.8505 36.564 39.9545 36.532 40.0665 36.532C40.1705 36.532 40.2865 36.576 40.4145 36.664C40.5505 36.744 40.7025 36.848 40.8705 36.976C41.0385 37.104 41.2305 37.244 41.4465 37.396C41.6625 37.548 41.9065 37.688 42.1785 37.816C42.4585 37.944 42.7745 38.052 43.1265 38.14C43.4785 38.22 43.8745 38.26 44.3145 38.26C44.8665 38.26 45.3585 38.184 45.7905 38.032C46.2225 37.88 46.5865 37.668 46.8825 37.396C47.1865 37.116 47.4185 36.784 47.5785 36.4C47.7385 36.016 47.8185 35.588 47.8185 35.116C47.8185 34.596 47.6985 34.172 47.4585 33.844C47.2265 33.508 46.9185 33.228 46.5345 33.004C46.1505 32.78 45.7105 32.592 45.2145 32.44C44.7185 32.28 44.2145 32.12 43.7025 31.96C43.1905 31.792 42.6865 31.6 42.1905 31.384C41.6945 31.168 41.2545 30.888 40.8705 30.544C40.4865 30.2 40.1745 29.772 39.9345 29.26C39.7025 28.74 39.5865 28.1 39.5865 27.34C39.5865 26.732 39.7025 26.144 39.9345 25.576C40.1745 25.008 40.5185 24.504 40.9665 24.064C41.4225 23.624 41.9785 23.272 42.6345 23.008C43.2985 22.744 44.0585 22.612 44.9145 22.612C45.8745 22.612 46.7465 22.764 47.5305 23.068C48.3225 23.372 49.0185 23.812 49.6185 24.388L49.0545 25.492Z" fill="white"/>
</svg>
