<svg width="60" height="60" viewBox="0 0 60 60" fill="none" xmlns="http://www.w3.org/2000/svg">
<rect width="60" height="60" fill="#009DCE"/>
<path fill-rule="evenodd" clip-rule="evenodd" d="M4.02083 6.51042V6H5.04167V6.51042H13.2083V6H14.2292V6.51042H15.25V8.55208H14.2292V11.1042H15.25V13.1458H14.2292V15.6979H15.25V17.7396H14.2292V20.2917H15.25V22.3333H14.2292V24.8854H15.25V26.9271H14.2292V29.4792H15.25V31.5208H14.2292V34.0729H15.25V36.1146H14.2292V38.6667H15.25V40.7083H14.2292V43.2604H15.25V45.3021H14.2292V47.8542H15.25V49.8958H14.2292V52.4479H15.25V54.4896H14.2292V55H13.2083V54.4896H5.04167V55H4.02083V54.4896H3V52.4479H4.02083V49.8958H3V47.8542H4.02083V45.3021H3V43.2604H4.02083V40.7083H3V38.6667H4.02083V36.1146H3V34.0729H4.02083V31.5208H3V29.4792H4.02083V26.9271H3V24.8854H4.02083V22.3333H3V20.2917H4.02083V17.7396H3V15.6979H4.02083V13.1458H3V11.1042H4.02083V8.55208H3V6.51042H4.02083ZM5.04167 52.4479H13.2083V49.8958H5.04167V52.4479ZM13.2083 45.3021V47.8542H5.04167V45.3021H13.2083ZM5.04167 43.2604H13.2083V40.7083H5.04167V43.2604ZM13.2083 36.1146V38.6667H5.04167V36.1146H13.2083ZM5.04167 34.0729H13.2083V31.5208H5.04167V34.0729ZM13.2083 26.9271V29.4792H5.04167V26.9271H13.2083ZM5.04167 24.8854H13.2083V22.3333H5.04167V24.8854ZM13.2083 17.7396V20.2917H5.04167V17.7396H13.2083ZM5.04167 15.6979H13.2083V13.1458H5.04167V15.6979ZM13.2083 8.55208V11.1042H5.04167V8.55208H13.2083Z" fill="black"/>
<path d="M25.1071 27.3731L30.4643 14L16 30.7164H22.9643L18.1429 46L31 27.3731H25.1071Z" fill="#FFF500"/>
</svg>
