<svg width="60" height="60" viewBox="0 0 60 60" fill="none" xmlns="http://www.w3.org/2000/svg">
<rect width="60" height="60" fill="#898989"/>
<path d="M19.088 25.672C19 25.816 18.908 25.924 18.812 25.996C18.716 26.06 18.596 26.092 18.452 26.092C18.3 26.092 18.128 26.028 17.936 25.9C17.752 25.772 17.52 25.632 17.24 25.48C16.968 25.32 16.644 25.176 16.268 25.048C15.892 24.912 15.444 24.844 14.924 24.844C14.444 24.844 14.02 24.904 13.652 25.024C13.292 25.144 12.988 25.312 12.74 25.528C12.492 25.744 12.304 26 12.176 26.296C12.056 26.584 11.996 26.9 11.996 27.244C11.996 27.684 12.112 28.052 12.344 28.348C12.576 28.636 12.88 28.884 13.256 29.092C13.64 29.3 14.076 29.484 14.564 29.644C15.052 29.796 15.548 29.96 16.052 30.136C16.564 30.312 17.064 30.512 17.552 30.736C18.04 30.96 18.472 31.244 18.848 31.588C19.232 31.932 19.54 32.352 19.772 32.848C20.004 33.344 20.12 33.948 20.12 34.66C20.12 35.428 19.988 36.148 19.724 36.82C19.46 37.492 19.076 38.08 18.572 38.584C18.076 39.08 17.46 39.472 16.724 39.76C15.996 40.048 15.164 40.192 14.228 40.192C13.676 40.192 13.136 40.136 12.608 40.024C12.088 39.92 11.588 39.772 11.108 39.58C10.636 39.38 10.192 39.14 9.776 38.86C9.36 38.58 8.988 38.268 8.66 37.924L9.476 36.58C9.548 36.468 9.64 36.38 9.752 36.316C9.864 36.252 9.988 36.22 10.124 36.22C10.308 36.22 10.512 36.308 10.736 36.484C10.96 36.652 11.228 36.84 11.54 37.048C11.86 37.248 12.244 37.436 12.692 37.612C13.14 37.78 13.676 37.864 14.3 37.864C15.316 37.864 16.1 37.616 16.652 37.12C17.212 36.624 17.492 35.94 17.492 35.068C17.492 34.58 17.376 34.184 17.144 33.88C16.912 33.568 16.604 33.308 16.22 33.1C15.844 32.892 15.412 32.716 14.924 32.572C14.436 32.428 13.94 32.276 13.436 32.116C12.932 31.948 12.436 31.756 11.948 31.54C11.46 31.316 11.024 31.028 10.64 30.676C10.264 30.316 9.96 29.876 9.728 29.356C9.496 28.828 9.38 28.172 9.38 27.388C9.38 26.764 9.5 26.16 9.74 25.576C9.988 24.992 10.344 24.476 10.808 24.028C11.28 23.572 11.86 23.208 12.548 22.936C13.236 22.664 14.02 22.528 14.9 22.528C15.892 22.528 16.8 22.684 17.624 22.996C18.456 23.308 19.172 23.752 19.772 24.328L19.088 25.672ZM28.5296 31.528C29.1536 31.528 29.7016 31.448 30.1736 31.288C30.6536 31.128 31.0496 30.904 31.3616 30.616C31.6816 30.32 31.9216 29.964 32.0816 29.548C32.2416 29.132 32.3216 28.668 32.3216 28.156C32.3216 27.652 32.2416 27.2 32.0816 26.8C31.9296 26.4 31.6976 26.06 31.3856 25.78C31.0736 25.5 30.6776 25.288 30.1976 25.144C29.7256 24.992 29.1696 24.916 28.5296 24.916H25.9616V31.528H28.5296ZM28.5296 22.72C29.6576 22.72 30.6336 22.852 31.4576 23.116C32.2896 23.38 32.9736 23.752 33.5096 24.232C34.0536 24.704 34.4576 25.276 34.7216 25.948C34.9856 26.612 35.1176 27.348 35.1176 28.156C35.1176 28.98 34.9776 29.736 34.6976 30.424C34.4176 31.104 34.0016 31.692 33.4496 32.188C32.8976 32.676 32.2096 33.06 31.3856 33.34C30.5696 33.612 29.6176 33.748 28.5296 33.748H25.9616V40H23.1536V22.72H28.5296ZM40.61 30.112H41.414C41.718 30.112 41.966 30.072 42.158 29.992C42.35 29.904 42.522 29.768 42.674 29.584L47.906 23.344C48.09 23.112 48.278 22.952 48.47 22.864C48.67 22.768 48.918 22.72 49.214 22.72H51.614L45.434 30.016C45.266 30.224 45.102 30.4 44.942 30.544C44.79 30.68 44.622 30.792 44.438 30.88C44.678 30.968 44.894 31.092 45.086 31.252C45.278 31.404 45.466 31.608 45.65 31.864L52.058 40H49.61C49.434 40 49.282 39.988 49.154 39.964C49.034 39.94 48.926 39.904 48.83 39.856C48.742 39.808 48.662 39.748 48.59 39.676C48.526 39.604 48.466 39.524 48.41 39.436L43.01 32.836C42.93 32.732 42.85 32.644 42.77 32.572C42.69 32.5 42.594 32.44 42.482 32.392C42.378 32.344 42.258 32.312 42.122 32.296C41.986 32.272 41.826 32.26 41.642 32.26H40.61V40H37.802V22.72H40.61V30.112Z" fill="#F2E147"/>
</svg>
