<svg width="60" height="60" viewBox="0 0 60 60" fill="none" xmlns="http://www.w3.org/2000/svg">
<rect width="60" height="60" fill="#898989"/>
<path d="M30.0774 14.349C30.5814 14.349 31.0254 14.289 31.4094 14.169C31.7994 14.043 32.1234 13.869 32.3814 13.647C32.6454 13.419 32.8434 13.149 32.9754 12.837C33.1074 12.525 33.1734 12.18 33.1734 11.802C33.1734 11.034 32.9214 10.455 32.4174 10.065C31.9134 9.675 31.1574 9.48 30.1494 9.48H28.2414V14.349H30.0774ZM36.0354 21H34.4874C34.1694 21 33.9354 20.877 33.7854 20.631L30.4374 16.023C30.3354 15.879 30.2244 15.777 30.1044 15.717C29.9904 15.651 29.8104 15.618 29.5644 15.618H28.2414V21H26.5044V8.103H30.1494C30.9654 8.103 31.6704 8.187 32.2644 8.355C32.8584 8.517 33.3474 8.754 33.7314 9.066C34.1214 9.378 34.4094 9.756 34.5954 10.2C34.7814 10.638 34.8744 11.13 34.8744 11.676C34.8744 12.132 34.8024 12.558 34.6584 12.954C34.5144 13.35 34.3044 13.707 34.0284 14.025C33.7584 14.337 33.4254 14.604 33.0294 14.826C32.6394 15.048 32.1954 15.216 31.6974 15.33C31.9194 15.456 32.1114 15.639 32.2734 15.879L36.0354 21ZM34.8193 31.564H31.1473V35.434H29.8423V31.564H26.1883V30.349H29.8423V26.506H31.1473V30.349H34.8193V31.564ZM22.493 42.119C22.439 42.209 22.379 42.278 22.313 42.326C22.253 42.368 22.178 42.389 22.088 42.389C21.986 42.389 21.866 42.338 21.728 42.236C21.59 42.134 21.416 42.023 21.206 41.903C21.002 41.777 20.753 41.663 20.459 41.561C20.171 41.459 19.82 41.408 19.406 41.408C19.016 41.408 18.671 41.462 18.371 41.57C18.077 41.672 17.828 41.813 17.624 41.993C17.426 42.173 17.276 42.386 17.174 42.632C17.072 42.872 17.021 43.133 17.021 43.415C17.021 43.775 17.108 44.075 17.282 44.315C17.462 44.549 17.696 44.75 17.984 44.918C18.278 45.086 18.608 45.233 18.974 45.359C19.346 45.479 19.724 45.605 20.108 45.737C20.498 45.869 20.876 46.019 21.242 46.187C21.614 46.349 21.944 46.556 22.232 46.808C22.526 47.06 22.76 47.369 22.934 47.735C23.114 48.101 23.204 48.551 23.204 49.085C23.204 49.649 23.108 50.18 22.916 50.678C22.724 51.17 22.442 51.599 22.07 51.965C21.704 52.331 21.251 52.619 20.711 52.829C20.177 53.039 19.568 53.144 18.884 53.144C18.044 53.144 17.282 52.994 16.598 52.694C15.914 52.388 15.329 51.977 14.843 51.461L15.347 50.633C15.395 50.567 15.452 50.513 15.518 50.471C15.59 50.423 15.668 50.399 15.752 50.399C15.83 50.399 15.917 50.432 16.013 50.498C16.115 50.558 16.229 50.636 16.355 50.732C16.481 50.828 16.625 50.933 16.787 51.047C16.949 51.161 17.132 51.266 17.336 51.362C17.546 51.458 17.783 51.539 18.047 51.605C18.311 51.665 18.608 51.695 18.938 51.695C19.352 51.695 19.721 51.638 20.045 51.524C20.369 51.41 20.642 51.251 20.864 51.047C21.092 50.837 21.266 50.588 21.386 50.3C21.506 50.012 21.566 49.691 21.566 49.337C21.566 48.947 21.476 48.629 21.296 48.383C21.122 48.131 20.891 47.921 20.603 47.753C20.315 47.585 19.985 47.444 19.613 47.33C19.241 47.21 18.863 47.09 18.479 46.97C18.095 46.844 17.717 46.7 17.345 46.538C16.973 46.376 16.643 46.166 16.355 45.908C16.067 45.65 15.833 45.329 15.653 44.945C15.479 44.555 15.392 44.075 15.392 43.505C15.392 43.049 15.479 42.608 15.653 42.182C15.833 41.756 16.091 41.378 16.427 41.048C16.769 40.718 17.186 40.454 17.678 40.256C18.176 40.058 18.746 39.959 19.388 39.959C20.108 39.959 20.762 40.073 21.35 40.301C21.944 40.529 22.466 40.859 22.916 41.291L22.493 42.119ZM29.4765 46.79C29.9745 46.79 30.4125 46.724 30.7905 46.592C31.1745 46.46 31.4955 46.277 31.7535 46.043C32.0175 45.803 32.2155 45.518 32.3475 45.188C32.4795 44.858 32.5455 44.495 32.5455 44.099C32.5455 43.277 32.2905 42.635 31.7805 42.173C31.2765 41.711 30.5085 41.48 29.4765 41.48H27.4065V46.79H29.4765ZM29.4765 40.103C30.2925 40.103 31.0005 40.199 31.6005 40.391C32.2065 40.577 32.7075 40.844 33.1035 41.192C33.4995 41.54 33.7935 41.96 33.9855 42.452C34.1835 42.944 34.2825 43.493 34.2825 44.099C34.2825 44.699 34.1775 45.248 33.9675 45.746C33.7575 46.244 33.4485 46.673 33.0405 47.033C32.6385 47.393 32.1375 47.675 31.5375 47.879C30.9435 48.077 30.2565 48.176 29.4765 48.176H27.4065V53H25.6695V40.103H29.4765ZM38.217 45.755H38.874C39.102 45.755 39.285 45.728 39.423 45.674C39.561 45.614 39.687 45.515 39.801 45.377L44.094 40.517C44.214 40.361 44.34 40.253 44.472 40.193C44.604 40.133 44.766 40.103 44.958 40.103H46.434L41.52 45.656C41.4 45.8 41.283 45.92 41.169 46.016C41.061 46.106 40.944 46.181 40.818 46.241C40.98 46.295 41.127 46.376 41.259 46.484C41.391 46.586 41.52 46.721 41.646 46.889L46.776 53H45.264C45.15 53 45.051 52.994 44.967 52.982C44.889 52.964 44.82 52.94 44.76 52.91C44.7 52.874 44.646 52.835 44.598 52.793C44.556 52.745 44.514 52.691 44.472 52.631L40.026 47.51C39.906 47.36 39.777 47.255 39.639 47.195C39.501 47.129 39.291 47.096 39.009 47.096H38.217V53H36.48V40.103H38.217V45.755Z" fill="white"/>
</svg>
