<svg width="60" height="60" viewBox="0 0 60 60" fill="none" xmlns="http://www.w3.org/2000/svg">
<rect width="60" height="60" fill="#898989"/>
<path d="M28.96 31.132C29.632 31.132 30.224 31.052 30.736 30.892C31.256 30.724 31.688 30.492 32.032 30.196C32.384 29.892 32.648 29.532 32.824 29.116C33 28.7 33.088 28.24 33.088 27.736C33.088 26.712 32.752 25.94 32.08 25.42C31.408 24.9 30.4 24.64 29.056 24.64H26.512V31.132H28.96ZM36.904 40H34.84C34.416 40 34.104 39.836 33.904 39.508L29.44 33.364C29.304 33.172 29.156 33.036 28.996 32.956C28.844 32.868 28.604 32.824 28.276 32.824H26.512V40H24.196V22.804H29.056C30.144 22.804 31.084 22.916 31.876 23.14C32.668 23.356 33.32 23.672 33.832 24.088C34.352 24.504 34.736 25.008 34.984 25.6C35.232 26.184 35.356 26.84 35.356 27.568C35.356 28.176 35.26 28.744 35.068 29.272C34.876 29.8 34.596 30.276 34.228 30.7C33.868 31.116 33.424 31.472 32.896 31.768C32.376 32.064 31.784 32.288 31.12 32.44C31.416 32.608 31.672 32.852 31.888 33.172L36.904 40Z" fill="white"/>
</svg>
