<svg width="25" height="40" viewBox="0 0 25 40" fill="none" xmlns="http://www.w3.org/2000/svg">
<path d="M22.3239 23.2517L12.5 39.9451L2.67613 23.2517C-1.14806 16.7533 -3.04933 0.0257886 12.4963 2.9778e-05C28.0499 0.0205562 26.1487 16.7523 22.3239 23.2517Z" fill="#7B7B7B"/>
<path d="M18.0882 23H7.5V7.91892C7.5 4.02703 18.0882 4.02703 18.0882 7.91892V23Z" fill="white"/>
<path d="M12.0446 8.99239V12.4865H11.314V9.81828L10.557 10.3053L10.2235 9.76004L11.3776 8.99239H12.0446ZM13.26 9.36298C13.4894 9.07357 13.8282 8.92886 14.2765 8.92886C14.7247 8.92886 15.0618 9.07357 15.2877 9.36298C15.5171 9.65239 15.6318 10.1183 15.6318 10.7606C15.6318 11.3995 15.5188 11.8583 15.2929 12.1371C15.0671 12.4124 14.7282 12.55 14.2765 12.55C13.8247 12.55 13.4859 12.4124 13.26 12.1371C13.0341 11.8583 12.9212 11.3995 12.9212 10.7606C12.9212 10.1183 13.0341 9.65239 13.26 9.36298ZM14.88 10.7447C14.88 10.3071 14.8341 10.0018 14.7424 9.82886C14.6506 9.65239 14.4953 9.56416 14.2765 9.56416C14.0612 9.56416 13.9059 9.65239 13.8106 9.82886C13.7188 10.0053 13.6729 10.3106 13.6729 10.7447C13.6729 11.1789 13.7206 11.4824 13.8159 11.6553C13.9112 11.8283 14.0665 11.9147 14.2818 11.9147C14.4971 11.9147 14.6506 11.8283 14.7424 11.6553C14.8341 11.4824 14.88 11.1789 14.88 10.7447ZM13.907 16.9924V17.6277H12.3453L12.2553 18.3847C12.4741 18.3 12.6823 18.2577 12.88 18.2577C13.6353 18.2577 14.0129 18.6089 14.0129 19.3112C14.0129 19.7065 13.9088 20.0118 13.7006 20.2271C13.4923 20.4424 13.1976 20.55 12.8164 20.55C12.6541 20.55 12.4688 20.5342 12.2606 20.5024C12.0558 20.4706 11.8917 20.4371 11.7682 20.4018L11.5776 20.3542L11.657 19.8142C12.0841 19.8812 12.4406 19.9147 12.7264 19.9147C12.8994 19.9147 13.0317 19.8689 13.1235 19.7771C13.2153 19.6853 13.2611 19.5547 13.2611 19.3853C13.2611 19.2124 13.2223 19.0871 13.1447 19.0095C13.067 18.9318 12.9576 18.893 12.8164 18.893C12.58 18.893 12.3717 18.9159 12.1917 18.9618L12.1123 18.983L11.6782 18.8824L11.7735 16.9924H13.907Z" fill="black"/>
</svg>
