<svg width="60" height="60" viewBox="0 0 60 60" fill="none" xmlns="http://www.w3.org/2000/svg">
<rect width="60" height="60" fill="#898989"/>
<path fill-rule="evenodd" clip-rule="evenodd" d="M4.02083 6.51042V6H5.04167V6.51042H13.2083V6H14.2292V6.51042H15.25V8.55208H14.2292V11.1042H15.25V13.1458H14.2292V15.6979H15.25V17.7396H14.2292V20.2917H15.25V22.3333H14.2292V24.8854H15.25V26.9271H14.2292V29.4792H15.25V31.5208H14.2292V34.0729H15.25V36.1146H14.2292V38.6667H15.25V40.7083H14.2292V43.2604H15.25V45.3021H14.2292V47.8542H15.25V49.8958H14.2292V52.4479H15.25V54.4896H14.2292V55H13.2083V54.4896H5.04167V55H4.02083V54.4896H3V52.4479H4.02083V49.8958H3V47.8542H4.02083V45.3021H3V43.2604H4.02083V40.7083H3V38.6667H4.02083V36.1146H3V34.0729H4.02083V31.5208H3V29.4792H4.02083V26.9271H3V24.8854H4.02083V22.3333H3V20.2917H4.02083V17.7396H3V15.6979H4.02083V13.1458H3V11.1042H4.02083V8.55208H3V6.51042H4.02083ZM5.04167 52.4479H13.2083V49.8958H5.04167V52.4479ZM13.2083 45.3021V47.8542H5.04167V45.3021H13.2083ZM5.04167 43.2604H13.2083V40.7083H5.04167V43.2604ZM13.2083 36.1146V38.6667H5.04167V36.1146H13.2083ZM5.04167 34.0729H13.2083V31.5208H5.04167V34.0729ZM13.2083 26.9271V29.4792H5.04167V26.9271H13.2083ZM5.04167 24.8854H13.2083V22.3333H5.04167V24.8854ZM13.2083 17.7396V20.2917H5.04167V17.7396H13.2083ZM5.04167 15.6979H13.2083V13.1458H5.04167V15.6979ZM13.2083 8.55208V11.1042H5.04167V8.55208H13.2083Z" fill="black"/>
<path fill-rule="evenodd" clip-rule="evenodd" d="M19.0208 6.51042V6H20.0417V6.51042H28.2083V6H29.2292V6.51042H30.25V8.55208H29.2292V11.1042H30.25V13.1458H29.2292V15.6979H30.25V17.7396H29.2292V20.2917H30.25V22.3333H29.2292V24.8854H30.25V26.9271H29.2292V29.4792H30.25V31.5208H29.2292V34.0729H30.25V36.1146H29.2292V38.6667H30.25V40.7083H29.2292V43.2604H30.25V45.3021H29.2292V47.8542H30.25V49.8958H29.2292V52.4479H30.25V54.4896H29.2292V55H28.2083V54.4896H20.0417V55H19.0208V54.4896H18V52.4479H19.0208V49.8958H18V47.8542H19.0208V45.3021H18V43.2604H19.0208V40.7083H18V38.6667H19.0208V36.1146H18V34.0729H19.0208V31.5208H18V29.4792H19.0208V26.9271H18V24.8854H19.0208V22.3333H18V20.2917H19.0208V17.7396H18V15.6979H19.0208V13.1458H18V11.1042H19.0208V8.55208H18V6.51042H19.0208ZM20.0417 52.4479H28.2083V49.8958H20.0417V52.4479ZM28.2083 45.3021V47.8542H20.0417V45.3021H28.2083ZM20.0417 43.2604H28.2083V40.7083H20.0417V43.2604ZM28.2083 36.1146V38.6667H20.0417V36.1146H28.2083ZM20.0417 34.0729H28.2083V31.5208H20.0417V34.0729ZM28.2083 26.9271V29.4792H20.0417V26.9271H28.2083ZM20.0417 24.8854H28.2083V22.3333H20.0417V24.8854ZM28.2083 17.7396V20.2917H20.0417V17.7396H28.2083ZM20.0417 15.6979H28.2083V13.1458H20.0417V15.6979ZM28.2083 8.55208V11.1042H20.0417V8.55208H28.2083Z" fill="black"/>
<path d="M17.9286 26.5522L24.3571 9L7 30.9403H15.3571L9.57143 51L25 26.5522H17.9286Z" fill="#FFF500"/>
<path d="M8 13L24 48" stroke="#FF0000" stroke-width="2" stroke-linecap="round"/>
</svg>
