<svg width="60" height="60" viewBox="0 0 60 60" fill="none" xmlns="http://www.w3.org/2000/svg">
<rect width="60" height="60" fill="#898989"/>
<path d="M29.068 15C29.708 15 30.268 14.924 30.748 14.772C31.228 14.612 31.628 14.392 31.948 14.112C32.268 13.832 32.508 13.5 32.668 13.116C32.828 12.724 32.908 12.292 32.908 11.82C32.908 10.876 32.596 10.156 31.972 9.66C31.348 9.164 30.404 8.916 29.14 8.916H26.86V15H29.068ZM37.204 24H34.696C34.2 24 33.84 23.808 33.616 23.424L29.584 17.604C29.448 17.404 29.3 17.26 29.14 17.172C28.98 17.084 28.74 17.04 28.42 17.04H26.86V24H24.052V6.72H29.14C30.276 6.72 31.252 6.836 32.068 7.068C32.892 7.3 33.568 7.632 34.096 8.064C34.624 8.488 35.012 9 35.26 9.6C35.516 10.2 35.644 10.868 35.644 11.604C35.644 12.204 35.552 12.764 35.368 13.284C35.192 13.804 34.932 14.276 34.588 14.7C34.252 15.124 33.836 15.492 33.34 15.804C32.844 16.116 32.28 16.36 31.648 16.536C31.992 16.744 32.288 17.036 32.536 17.412L37.204 24Z" fill="#2B2B2B"/>
<path d="M20.088 39.672C20 39.816 19.908 39.924 19.812 39.996C19.716 40.06 19.596 40.092 19.452 40.092C19.3 40.092 19.128 40.028 18.936 39.9C18.752 39.772 18.52 39.632 18.24 39.48C17.968 39.32 17.644 39.176 17.268 39.048C16.892 38.912 16.444 38.844 15.924 38.844C15.444 38.844 15.02 38.904 14.652 39.024C14.292 39.144 13.988 39.312 13.74 39.528C13.492 39.744 13.304 40 13.176 40.296C13.056 40.584 12.996 40.9 12.996 41.244C12.996 41.684 13.112 42.052 13.344 42.348C13.576 42.636 13.88 42.884 14.256 43.092C14.64 43.3 15.076 43.484 15.564 43.644C16.052 43.796 16.548 43.96 17.052 44.136C17.564 44.312 18.064 44.512 18.552 44.736C19.04 44.96 19.472 45.244 19.848 45.588C20.232 45.932 20.54 46.352 20.772 46.848C21.004 47.344 21.12 47.948 21.12 48.66C21.12 49.428 20.988 50.148 20.724 50.82C20.46 51.492 20.076 52.08 19.572 52.584C19.076 53.08 18.46 53.472 17.724 53.76C16.996 54.048 16.164 54.192 15.228 54.192C14.676 54.192 14.136 54.136 13.608 54.024C13.088 53.92 12.588 53.772 12.108 53.58C11.636 53.38 11.192 53.14 10.776 52.86C10.36 52.58 9.988 52.268 9.66 51.924L10.476 50.58C10.548 50.468 10.64 50.38 10.752 50.316C10.864 50.252 10.988 50.22 11.124 50.22C11.308 50.22 11.512 50.308 11.736 50.484C11.96 50.652 12.228 50.84 12.54 51.048C12.86 51.248 13.244 51.436 13.692 51.612C14.14 51.78 14.676 51.864 15.3 51.864C16.316 51.864 17.1 51.616 17.652 51.12C18.212 50.624 18.492 49.94 18.492 49.068C18.492 48.58 18.376 48.184 18.144 47.88C17.912 47.568 17.604 47.308 17.22 47.1C16.844 46.892 16.412 46.716 15.924 46.572C15.436 46.428 14.94 46.276 14.436 46.116C13.932 45.948 13.436 45.756 12.948 45.54C12.46 45.316 12.024 45.028 11.64 44.676C11.264 44.316 10.96 43.876 10.728 43.356C10.496 42.828 10.38 42.172 10.38 41.388C10.38 40.764 10.5 40.16 10.74 39.576C10.988 38.992 11.344 38.476 11.808 38.028C12.28 37.572 12.86 37.208 13.548 36.936C14.236 36.664 15.02 36.528 15.9 36.528C16.892 36.528 17.8 36.684 18.624 36.996C19.456 37.308 20.172 37.752 20.772 38.328L20.088 39.672ZM36.1536 50.148C36.3056 50.148 36.4376 50.208 36.5496 50.328L37.6656 51.54C36.9616 52.388 36.0976 53.044 35.0736 53.508C34.0496 53.964 32.8256 54.192 31.4016 54.192C30.1376 54.192 28.9936 53.976 27.9696 53.544C26.9536 53.104 26.0856 52.496 25.3656 51.72C24.6456 50.936 24.0896 50.004 23.6976 48.924C23.3136 47.844 23.1216 46.656 23.1216 45.36C23.1216 44.064 23.3256 42.876 23.7336 41.796C24.1496 40.708 24.7296 39.776 25.4736 39C26.2256 38.216 27.1216 37.608 28.1616 37.176C29.2096 36.744 30.3616 36.528 31.6176 36.528C32.8656 36.528 33.9656 36.732 34.9176 37.14C35.8776 37.54 36.7096 38.076 37.4136 38.748L36.4896 40.056C36.4256 40.144 36.3496 40.22 36.2616 40.284C36.1736 40.348 36.0536 40.38 35.9016 40.38C35.7416 40.38 35.5576 40.308 35.3496 40.164C35.1496 40.012 34.8896 39.848 34.5696 39.672C34.2576 39.488 33.8616 39.324 33.3816 39.18C32.9096 39.028 32.3176 38.952 31.6056 38.952C30.7816 38.952 30.0256 39.096 29.3376 39.384C28.6496 39.672 28.0576 40.092 27.5616 40.644C27.0656 41.196 26.6776 41.868 26.3976 42.66C26.1256 43.452 25.9896 44.352 25.9896 45.36C25.9896 46.376 26.1336 47.284 26.4216 48.084C26.7096 48.876 27.1056 49.548 27.6096 50.1C28.1136 50.644 28.7056 51.06 29.3856 51.348C30.0656 51.636 30.7976 51.78 31.5816 51.78C32.0616 51.78 32.4896 51.756 32.8656 51.708C33.2496 51.652 33.6016 51.568 33.9216 51.456C34.2416 51.336 34.5416 51.188 34.8216 51.012C35.1096 50.836 35.3936 50.62 35.6736 50.364C35.8336 50.22 35.9936 50.148 36.1536 50.148ZM49.1271 39.672C49.0391 39.816 48.9471 39.924 48.8511 39.996C48.7551 40.06 48.6351 40.092 48.4911 40.092C48.3391 40.092 48.1671 40.028 47.9751 39.9C47.7911 39.772 47.5591 39.632 47.2791 39.48C47.0071 39.32 46.6831 39.176 46.3071 39.048C45.9311 38.912 45.4831 38.844 44.9631 38.844C44.4831 38.844 44.0591 38.904 43.6911 39.024C43.3311 39.144 43.0271 39.312 42.7791 39.528C42.5311 39.744 42.3431 40 42.2151 40.296C42.0951 40.584 42.0351 40.9 42.0351 41.244C42.0351 41.684 42.1511 42.052 42.3831 42.348C42.6151 42.636 42.9191 42.884 43.2951 43.092C43.6791 43.3 44.1151 43.484 44.6031 43.644C45.0911 43.796 45.5871 43.96 46.0911 44.136C46.6031 44.312 47.1031 44.512 47.5911 44.736C48.0791 44.96 48.5111 45.244 48.8871 45.588C49.2711 45.932 49.5791 46.352 49.8111 46.848C50.0431 47.344 50.1591 47.948 50.1591 48.66C50.1591 49.428 50.0271 50.148 49.7631 50.82C49.4991 51.492 49.1151 52.08 48.6111 52.584C48.1151 53.08 47.4991 53.472 46.7631 53.76C46.0351 54.048 45.2031 54.192 44.2671 54.192C43.7151 54.192 43.1751 54.136 42.6471 54.024C42.1271 53.92 41.6271 53.772 41.1471 53.58C40.6751 53.38 40.2311 53.14 39.8151 52.86C39.3991 52.58 39.0271 52.268 38.6991 51.924L39.5151 50.58C39.5871 50.468 39.6791 50.38 39.7911 50.316C39.9031 50.252 40.0271 50.22 40.1631 50.22C40.3471 50.22 40.5511 50.308 40.7751 50.484C40.9991 50.652 41.2671 50.84 41.5791 51.048C41.8991 51.248 42.2831 51.436 42.7311 51.612C43.1791 51.78 43.7151 51.864 44.3391 51.864C45.3551 51.864 46.1391 51.616 46.6911 51.12C47.2511 50.624 47.5311 49.94 47.5311 49.068C47.5311 48.58 47.4151 48.184 47.1831 47.88C46.9511 47.568 46.6431 47.308 46.2591 47.1C45.8831 46.892 45.4511 46.716 44.9631 46.572C44.4751 46.428 43.9791 46.276 43.4751 46.116C42.9711 45.948 42.4751 45.756 41.9871 45.54C41.4991 45.316 41.0631 45.028 40.6791 44.676C40.3031 44.316 39.9991 43.876 39.7671 43.356C39.5351 42.828 39.4191 42.172 39.4191 41.388C39.4191 40.764 39.5391 40.16 39.7791 39.576C40.0271 38.992 40.3831 38.476 40.8471 38.028C41.3191 37.572 41.8991 37.208 42.5871 36.936C43.2751 36.664 44.0591 36.528 44.9391 36.528C45.9311 36.528 46.8391 36.684 47.6631 36.996C48.4951 37.308 49.2111 37.752 49.8111 38.328L49.1271 39.672Z" fill="#84E1FF"/>
</svg>
