<svg width="60" height="60" viewBox="0 0 60 60" fill="none" xmlns="http://www.w3.org/2000/svg">
<rect width="60" height="60" fill="#898989"/>
<path d="M38.436 22.72V40H35.964V28.156C35.964 27.964 35.968 27.756 35.976 27.532C35.992 27.3 36.012 27.068 36.036 26.836L30.48 37.096C30.264 37.52 29.932 37.732 29.484 37.732H29.088C28.632 37.732 28.3 37.52 28.092 37.096L22.452 26.812C22.476 27.044 22.492 27.276 22.5 27.508C22.516 27.74 22.524 27.956 22.524 28.156V40H20.052V22.72H22.152C22.4 22.72 22.592 22.744 22.728 22.792C22.864 22.832 22.988 22.964 23.1 23.188L28.644 33.232C28.764 33.464 28.876 33.704 28.98 33.952C29.092 34.192 29.192 34.44 29.28 34.696C29.376 34.44 29.476 34.188 29.58 33.94C29.692 33.684 29.808 33.44 29.928 33.208L35.388 23.188C35.5 22.964 35.624 22.832 35.76 22.792C35.896 22.744 36.088 22.72 36.336 22.72H38.436Z" fill="#FFB800"/>
</svg>
