<svg width="167" height="264" viewBox="0 0 167 264" fill="none" xmlns="http://www.w3.org/2000/svg">
<rect x="123.045" y="220.423" width="4.02763" height="81.4873" rx="2.01382" transform="rotate(90 123.045 220.423)" fill="white"/>
<rect x="143.417" y="234.52" width="6.04145" height="118.157" rx="3.02073" transform="rotate(90 143.417 234.52)" fill="white"/>
<g filter="url(#filter0_d_271_96)">
<rect width="14.1787" height="66.5346" rx="7.08937" transform="matrix(0.711174 0.703016 -0.711174 0.703016 58.3177 196.257)" fill="white"/>
</g>
<g filter="url(#filter1_d_271_96)">
<rect width="14.1787" height="66.5346" rx="7.08937" transform="matrix(-0.711174 0.703016 0.711174 0.703016 108.682 196.257)" fill="white"/>
</g>
<g filter="url(#filter2_d_271_96)">
<rect x="17.1115" y="27.1201" width="132.417" height="185.224" rx="20.3718" stroke="#7A7A7A" stroke-width="4.07437"/>
<path fill-rule="evenodd" clip-rule="evenodd" d="M15.0743 47.4919C15.0743 35.1157 25.1072 25.0829 37.4834 25.0829H129.157C141.533 25.0829 151.566 35.1157 151.566 47.4919V191.973C151.566 204.349 141.533 214.382 129.157 214.382H37.4834C25.1072 214.382 15.0743 204.349 15.0743 191.973V47.4919ZM56.4354 182.16C56.4354 189.946 49.9541 196.257 41.959 196.257C33.964 196.257 27.4827 189.946 27.4827 182.16C27.4827 174.375 33.964 168.064 41.959 168.064C49.9541 168.064 56.4354 174.375 56.4354 182.16ZM124.681 196.257C132.676 196.257 139.157 189.946 139.157 182.16C139.157 174.375 132.676 168.064 124.681 168.064C116.686 168.064 110.205 174.375 110.205 182.16C110.205 189.946 116.686 196.257 124.681 196.257ZM79.184 66.9687C79.184 64.8852 77.4949 63.1962 75.4114 63.1962H31.2553C29.1718 63.1962 27.4827 64.8852 27.4827 66.9687V106.04C27.4827 108.123 29.1718 109.812 31.2553 109.812H75.4114C77.4949 109.812 79.184 108.123 79.184 106.04V66.9687ZM135.385 63.1962C137.468 63.1962 139.157 64.8852 139.157 66.9687V106.04C139.157 108.123 137.468 109.812 135.385 109.812H91.2287C89.1452 109.812 87.4562 108.123 87.4562 106.04V66.9687C87.4562 64.8852 89.1452 63.1962 91.2287 63.1962H135.385Z" fill="white"/>
<ellipse cx="83.32" cy="27.0967" rx="14.4763" ry="14.0967" fill="#F3F1F1"/>
</g>
<defs>
<filter id="filter0_d_271_96" x="0.95343" y="186.177" width="77.4944" height="76.9037" filterUnits="userSpaceOnUse" color-interpolation-filters="sRGB">
<feFlood flood-opacity="0" result="BackgroundImageFix"/>
<feColorMatrix in="SourceAlpha" type="matrix" values="0 0 0 0 0 0 0 0 0 0 0 0 0 0 0 0 0 0 127 0" result="hardAlpha"/>
<feOffset/>
<feGaussianBlur stdDeviation="6.5"/>
<feComposite in2="hardAlpha" operator="out"/>
<feColorMatrix type="matrix" values="0 0 0 0 0 0 0 0 0 0 0 0 0 0 0 0 0 0 0.25 0"/>
<feBlend mode="normal" in2="BackgroundImageFix" result="effect1_dropShadow_271_96"/>
<feBlend mode="normal" in="SourceGraphic" in2="effect1_dropShadow_271_96" result="shape"/>
</filter>
<filter id="filter1_d_271_96" x="88.5522" y="186.177" width="77.4944" height="76.9037" filterUnits="userSpaceOnUse" color-interpolation-filters="sRGB">
<feFlood flood-opacity="0" result="BackgroundImageFix"/>
<feColorMatrix in="SourceAlpha" type="matrix" values="0 0 0 0 0 0 0 0 0 0 0 0 0 0 0 0 0 0 127 0" result="hardAlpha"/>
<feOffset/>
<feGaussianBlur stdDeviation="6.5"/>
<feComposite in2="hardAlpha" operator="out"/>
<feColorMatrix type="matrix" values="0 0 0 0 0 0 0 0 0 0 0 0 0 0 0 0 0 0 0.25 0"/>
<feBlend mode="normal" in2="BackgroundImageFix" result="effect1_dropShadow_271_96"/>
<feBlend mode="normal" in="SourceGraphic" in2="effect1_dropShadow_271_96" result="shape"/>
</filter>
<filter id="filter2_d_271_96" x="2.85124" y="0.776902" width="160.937" height="225.828" filterUnits="userSpaceOnUse" color-interpolation-filters="sRGB">
<feFlood flood-opacity="0" result="BackgroundImageFix"/>
<feColorMatrix in="SourceAlpha" type="matrix" values="0 0 0 0 0 0 0 0 0 0 0 0 0 0 0 0 0 0 127 0" result="hardAlpha"/>
<feOffset/>
<feGaussianBlur stdDeviation="6.11155"/>
<feComposite in2="hardAlpha" operator="out"/>
<feColorMatrix type="matrix" values="0 0 0 0 0 0 0 0 0 0 0 0 0 0 0 0 0 0 0.25 0"/>
<feBlend mode="normal" in2="BackgroundImageFix" result="effect1_dropShadow_271_96"/>
<feBlend mode="normal" in="SourceGraphic" in2="effect1_dropShadow_271_96" result="shape"/>
</filter>
</defs>
</svg>
